<svg width="24" height="24" viewBox="0 0 24 24" fill="none" xmlns="http://www.w3.org/2000/svg">
<path d="M23.6133 21.72L19.08 17.2C20.5427 15.3366 21.3363 13.0355 21.3333 10.6667C21.3333 8.557 20.7077 6.49471 19.5357 4.74059C18.3636 2.98646 16.6977 1.61929 14.7486 0.811956C12.7996 0.00462166 10.6548 -0.206614 8.58571 0.204962C6.51658 0.616537 4.61596 1.63244 3.1242 3.1242C1.63244 4.61596 0.616538 6.51658 0.204962 8.58571C-0.206614 10.6548 0.00462166 12.7995 0.811956 14.7486C1.61929 16.6977 2.98646 18.3636 4.74059 19.5357C6.49471 20.7077 8.557 21.3333 10.6667 21.3333C13.0355 21.3363 15.3366 20.5427 17.2 19.08L21.72 23.6133C21.844 23.7383 21.9914 23.8375 22.1539 23.9052C22.3164 23.9729 22.4907 24.0077 22.6667 24.0077C22.8427 24.0077 23.017 23.9729 23.1794 23.9052C23.3419 23.8375 23.4894 23.7383 23.6133 23.6133C23.7383 23.4894 23.8375 23.3419 23.9052 23.1794C23.9729 23.017 24.0077 22.8427 24.0077 22.6667C24.0077 22.4907 23.9729 22.3164 23.9052 22.1539C23.8375 21.9914 23.7383 21.844 23.6133 21.72ZM2.66667 10.6667C2.66667 9.08442 3.13586 7.5377 4.01491 6.22211C4.89397 4.90652 6.1434 3.88114 7.6052 3.27564C9.06701 2.67013 10.6755 2.51171 12.2274 2.82039C13.7792 3.12907 15.2047 3.891 16.3235 5.00982C17.4423 6.12864 18.2043 7.5541 18.513 9.10595C18.8216 10.6578 18.6632 12.2663 18.0577 13.7281C17.4522 15.1899 16.4268 16.4394 15.1112 17.3184C13.7956 18.1975 12.2489 18.6667 10.6667 18.6667C8.54494 18.6667 6.51011 17.8238 5.00982 16.3235C3.50953 14.8232 2.66667 12.7884 2.66667 10.6667Z" fill="#313131"/>
</svg>
