<svg width="232" height="31" viewBox="0 0 232 31" fill="none" xmlns="http://www.w3.org/2000/svg">
<path d="M12.896 30.396C10.256 30.396 7.976 29.82 6.056 28.668C4.16 27.492 2.72 25.884 1.736 23.844C0.752 21.804 0.26 19.5 0.26 16.932C0.26 13.98 0.824 11.448 1.952 9.336C3.104 7.224 4.724 5.628 6.812 4.548C8.9 3.468 11.336 2.928 14.12 2.928C16.736 2.928 19.676 3.3 22.94 4.044L22.544 10.74H18.908L17.936 6.132C17.696 5.892 17.24 5.676 16.568 5.484C15.896 5.268 15.02 5.16 13.94 5.16C11.588 5.16 9.74 6.12 8.396 8.04C7.052 9.936 6.38 12.684 6.38 16.284C6.38 19.812 6.956 22.668 8.108 24.852C9.26 27.012 11.012 28.092 13.364 28.092C14.324 28.092 15.224 27.972 16.064 27.732C16.904 27.492 17.54 27.18 17.972 26.796V19.056L14.156 18.696V16.284H25.1V18.696L23.192 19.02V28.56C22.688 28.584 21.776 28.788 20.456 29.172C18.92 29.58 17.6 29.88 16.496 30.072C15.416 30.288 14.216 30.396 12.896 30.396ZM27.0131 24.384C27.0131 22.2 28.1051 20.556 30.2891 19.452C32.4971 18.348 35.3411 17.784 38.8211 17.76V16.932C38.8211 15.948 38.7131 15.18 38.4971 14.628C38.3051 14.076 37.9331 13.668 37.3811 13.404C36.8531 13.116 36.0731 12.972 35.0411 12.972C33.8651 12.972 32.8091 13.128 31.8731 13.44C30.9371 13.728 29.9651 14.112 28.9571 14.592L27.8411 12.288C28.2011 11.976 28.8011 11.604 29.6411 11.172C30.5051 10.74 31.5251 10.368 32.7011 10.056C33.8771 9.72 35.0891 9.552 36.3371 9.552C38.1851 9.552 39.6251 9.792 40.6571 10.272C41.7131 10.752 42.4691 11.52 42.9251 12.576C43.3811 13.632 43.6091 15.048 43.6091 16.824V27.84H45.5531V29.856C45.0731 29.976 44.3891 30.096 43.5011 30.216C42.6131 30.336 41.8331 30.396 41.1611 30.396C40.3451 30.396 39.7931 30.276 39.5051 30.036C39.2411 29.796 39.1091 29.304 39.1091 28.56V27.588C38.4611 28.308 37.6211 28.956 36.5891 29.532C35.5571 30.108 34.3931 30.396 33.0971 30.396C31.9931 30.396 30.9731 30.168 30.0371 29.712C29.1251 29.232 28.3931 28.548 27.8411 27.66C27.2891 26.748 27.0131 25.656 27.0131 24.384ZM35.4011 27.408C35.9051 27.408 36.4811 27.264 37.1291 26.976C37.7771 26.664 38.3411 26.292 38.8211 25.86V19.956C36.6611 19.956 35.0411 20.328 33.9611 21.072C32.9051 21.792 32.3771 22.728 32.3771 23.88C32.3771 25.032 32.6411 25.908 33.1691 26.508C33.7211 27.108 34.4651 27.408 35.4011 27.408ZM53.8477 30.324C52.3357 30.324 51.2197 29.976 50.4997 29.28C49.7797 28.584 49.4197 27.48 49.4197 25.968V12.756H47.0797V10.884C47.2717 10.812 47.6197 10.692 48.1237 10.524C48.6277 10.332 49.0117 10.176 49.2757 10.056C49.6837 9.744 50.0317 9.204 50.3197 8.436C50.5357 7.932 50.9317 6.684 51.5077 4.692H54.3877L54.5317 9.984H60.0397V12.756H54.5677V22.872C54.5677 24.216 54.6037 25.164 54.6757 25.716C54.7477 26.268 54.9037 26.628 55.1437 26.796C55.3837 26.94 55.8037 27.012 56.4037 27.012C57.0037 27.012 57.6277 26.952 58.2757 26.832C58.9237 26.688 59.4637 26.52 59.8957 26.328L60.5797 28.344C59.9077 28.848 58.9237 29.304 57.6277 29.712C56.3317 30.12 55.0717 30.324 53.8477 30.324ZM64.187 3.684L61.451 3.216V1.272L68.147 0.479998H68.255L69.191 1.164L69.227 9.192L68.975 12.324C69.719 11.652 70.727 11.028 71.999 10.452C73.295 9.876 74.651 9.588 76.067 9.588C77.579 9.588 78.755 9.876 79.595 10.452C80.435 11.004 81.023 11.856 81.359 13.008C81.695 14.16 81.863 15.696 81.863 17.616V27.516L84.167 27.84V30H74.699V27.84L76.787 27.516V17.616C76.787 16.368 76.703 15.396 76.535 14.7C76.367 14.004 76.055 13.488 75.599 13.152C75.167 12.816 74.519 12.648 73.655 12.648C72.911 12.648 72.143 12.828 71.351 13.188C70.583 13.524 69.899 13.932 69.299 14.412V27.516L71.495 27.84V30H62.171V27.84L64.187 27.552V3.684ZM228.442 30.324C227.698 30.324 227.05 30.072 226.498 29.568C225.946 29.04 225.67 28.38 225.67 27.588C225.67 26.7 225.982 25.98 226.606 25.428C227.254 24.852 228.034 24.564 228.946 24.564C229.81 24.564 230.494 24.84 230.998 25.392C231.502 25.92 231.754 26.556 231.754 27.3C231.754 28.236 231.442 28.98 230.818 29.532C230.218 30.06 229.426 30.324 228.442 30.324Z" fill="#DB2A6B"/>
<path d="M95.6842 30.396C94.3882 30.396 93.2242 30.288 92.1922 30.072C91.1602 29.856 90.0082 29.568 88.7362 29.208C87.8962 28.968 87.3322 28.836 87.0442 28.812L87.3682 22.152H90.2842L91.0762 26.796C91.3882 27.132 91.9402 27.432 92.7322 27.696C93.5482 27.96 94.4722 28.092 95.5042 28.092C97.1122 28.092 98.3122 27.744 99.1042 27.048C99.9202 26.328 100.328 25.332 100.328 24.06C100.328 23.22 100.088 22.5 99.6082 21.9C99.1282 21.276 98.4682 20.724 97.6282 20.244C96.7882 19.74 95.6362 19.164 94.1722 18.516C92.1802 17.604 90.5242 16.524 89.2042 15.276C87.9082 14.004 87.2602 12.288 87.2602 10.128C87.2602 8.784 87.6082 7.572 88.3042 6.492C89.0002 5.388 90.0322 4.524 91.4002 3.9C92.7922 3.252 94.4842 2.928 96.4762 2.928C97.6522 2.928 98.6842 3.012 99.5722 3.18C100.484 3.348 101.468 3.576 102.524 3.864C103.148 4.032 103.616 4.14 103.928 4.188L103.712 10.488H100.832L100.076 6.06C99.8602 5.844 99.4282 5.64 98.7802 5.448C98.1322 5.232 97.4122 5.124 96.6202 5.124C95.1802 5.124 94.0882 5.46 93.3442 6.132C92.6242 6.78 92.2642 7.656 92.2642 8.76C92.2642 9.648 92.5282 10.416 93.0562 11.064C93.6082 11.712 94.2682 12.264 95.0362 12.72C95.8042 13.152 97.0162 13.776 98.6722 14.592C100.016 15.24 101.168 15.876 102.128 16.5C103.088 17.124 103.916 17.94 104.612 18.948C105.308 19.932 105.656 21.096 105.656 22.44C105.656 23.76 105.32 25.02 104.648 26.22C104 27.42 102.92 28.416 101.408 29.208C99.9202 30 98.0122 30.396 95.6842 30.396ZM117.376 30.396C114.208 30.396 111.844 29.472 110.284 27.624C108.748 25.752 107.98 23.208 107.98 19.992C107.98 17.832 108.376 15.96 109.168 14.376C109.984 12.792 111.124 11.58 112.588 10.74C114.052 9.9 115.744 9.48 117.664 9.48C120.064 9.48 121.912 10.116 123.208 11.388C124.504 12.636 125.176 14.424 125.224 16.752C125.224 18.336 125.128 19.512 124.936 20.28H113.236C113.332 22.464 113.848 24.168 114.784 25.392C115.72 26.592 117.052 27.192 118.78 27.192C119.716 27.192 120.676 27.036 121.66 26.724C122.668 26.412 123.46 26.04 124.036 25.608L124.936 27.588C124.288 28.284 123.232 28.932 121.768 29.532C120.328 30.108 118.864 30.396 117.376 30.396ZM120.184 18.12C120.232 17.448 120.256 16.932 120.256 16.572C120.256 13.38 119.188 11.784 117.052 11.784C115.876 11.784 114.964 12.252 114.316 13.188C113.668 14.124 113.308 15.768 113.236 18.12H120.184ZM132.093 27.048C132.285 27.336 132.717 27.612 133.389 27.876C134.085 28.116 134.781 28.236 135.477 28.236C136.605 28.236 137.445 28.008 137.997 27.552C138.573 27.072 138.861 26.448 138.861 25.68C138.861 24.888 138.513 24.252 137.817 23.772C137.121 23.268 135.945 22.656 134.289 21.936L133.281 21.504C131.625 20.808 130.389 19.968 129.573 18.984C128.757 18 128.349 16.728 128.349 15.168C128.349 14.088 128.673 13.128 129.321 12.288C129.969 11.424 130.881 10.752 132.057 10.272C133.233 9.792 134.589 9.552 136.125 9.552C137.253 9.552 138.213 9.624 139.005 9.768C139.821 9.912 140.673 10.104 141.561 10.344C142.041 10.512 142.401 10.608 142.641 10.632V15.348H139.797L138.969 12.612C138.825 12.372 138.501 12.156 137.997 11.964C137.493 11.772 136.917 11.676 136.269 11.676C135.285 11.676 134.493 11.892 133.893 12.324C133.317 12.732 133.029 13.308 133.029 14.052C133.029 14.724 133.233 15.288 133.641 15.744C134.049 16.176 134.493 16.512 134.973 16.752C135.453 16.992 136.341 17.388 137.637 17.94C138.933 18.492 140.001 19.02 140.841 19.524C141.705 20.028 142.413 20.688 142.965 21.504C143.541 22.296 143.829 23.268 143.829 24.42C143.829 26.196 143.133 27.636 141.741 28.74C140.349 29.844 138.345 30.396 135.729 30.396C134.505 30.396 133.401 30.288 132.417 30.072C131.457 29.856 130.341 29.568 129.069 29.208L128.277 28.956V24.204H131.265L132.093 27.048ZM150.761 27.048C150.953 27.336 151.385 27.612 152.057 27.876C152.753 28.116 153.449 28.236 154.145 28.236C155.273 28.236 156.113 28.008 156.665 27.552C157.241 27.072 157.529 26.448 157.529 25.68C157.529 24.888 157.181 24.252 156.485 23.772C155.789 23.268 154.613 22.656 152.957 21.936L151.949 21.504C150.293 20.808 149.057 19.968 148.241 18.984C147.425 18 147.017 16.728 147.017 15.168C147.017 14.088 147.341 13.128 147.989 12.288C148.637 11.424 149.549 10.752 150.725 10.272C151.901 9.792 153.257 9.552 154.793 9.552C155.921 9.552 156.881 9.624 157.673 9.768C158.489 9.912 159.341 10.104 160.229 10.344C160.709 10.512 161.069 10.608 161.309 10.632V15.348H158.465L157.637 12.612C157.493 12.372 157.169 12.156 156.665 11.964C156.161 11.772 155.585 11.676 154.937 11.676C153.953 11.676 153.161 11.892 152.561 12.324C151.985 12.732 151.697 13.308 151.697 14.052C151.697 14.724 151.901 15.288 152.309 15.744C152.717 16.176 153.161 16.512 153.641 16.752C154.121 16.992 155.009 17.388 156.305 17.94C157.601 18.492 158.669 19.02 159.509 19.524C160.373 20.028 161.081 20.688 161.633 21.504C162.209 22.296 162.497 23.268 162.497 24.42C162.497 26.196 161.801 27.636 160.409 28.74C159.017 29.844 157.013 30.396 154.397 30.396C153.173 30.396 152.069 30.288 151.085 30.072C150.125 29.856 149.009 29.568 147.737 29.208L146.945 28.956V24.204H149.933L150.761 27.048ZM169.717 6.708C168.853 6.708 168.169 6.456 167.665 5.952C167.161 5.448 166.909 4.8 166.909 4.008C166.909 3.096 167.197 2.34 167.773 1.74C168.349 1.14 169.117 0.839998 170.077 0.839998C171.037 0.839998 171.769 1.104 172.273 1.632C172.777 2.136 173.029 2.772 173.029 3.54C173.029 4.5 172.741 5.268 172.165 5.844C171.589 6.42 170.785 6.708 169.753 6.708H169.717ZM167.809 13.404L165.253 12.72V10.308L171.841 9.516H171.913L172.921 10.236V27.552L175.333 27.84V30H165.289V27.84L167.809 27.516V13.404ZM177.913 20.028C177.913 17.772 178.357 15.852 179.245 14.268C180.157 12.684 181.369 11.496 182.881 10.704C184.393 9.888 186.037 9.48 187.813 9.48C190.837 9.48 193.165 10.416 194.797 12.288C196.453 14.136 197.281 16.656 197.281 19.848C197.281 22.128 196.825 24.072 195.913 25.68C195.025 27.264 193.825 28.452 192.313 29.244C190.825 30.012 189.181 30.396 187.381 30.396C184.381 30.396 182.053 29.472 180.397 27.624C178.741 25.752 177.913 23.22 177.913 20.028ZM187.669 28.056C190.381 28.056 191.737 25.44 191.737 20.208C191.737 17.472 191.413 15.396 190.765 13.98C190.117 12.54 189.061 11.82 187.597 11.82C184.813 11.82 183.421 14.436 183.421 19.668C183.421 22.404 183.757 24.492 184.429 25.932C185.125 27.348 186.205 28.056 187.669 28.056ZM202.57 13.404L200.266 12.756V10.272L206.242 9.516H206.35L207.25 10.236V11.64L207.214 12.504C208.054 11.712 209.146 11.028 210.49 10.452C211.834 9.876 213.19 9.588 214.558 9.588C216.022 9.588 217.162 9.864 217.978 10.416C218.818 10.944 219.418 11.784 219.778 12.936C220.138 14.088 220.318 15.648 220.318 17.616V27.552L222.514 27.84V30H213.226V27.84L215.17 27.552V17.616C215.17 16.368 215.086 15.396 214.918 14.7C214.75 13.98 214.438 13.464 213.982 13.152C213.55 12.816 212.926 12.648 212.11 12.648C210.742 12.648 209.278 13.236 207.718 14.412V27.516L209.878 27.84V30H200.482V27.84L202.57 27.516V13.404Z" fill="white"/>
</svg>
