<svg width="64" height="64" viewBox="0 0 64 64" fill="none" xmlns="http://www.w3.org/2000/svg">
<rect opacity="0.5" width="64" height="64" rx="16" fill="white" fill-opacity="0.25"/>
<g clip-path="url(#clip0_1313_901)">
<path fill-rule="evenodd" clip-rule="evenodd" d="M48.25 22C48.25 20.3425 47.5912 18.7528 46.4194 17.5806C45.2475 16.4084 43.6575 15.75 42 15.75C36.4513 15.75 27.5487 15.75 22 15.75C20.3425 15.75 18.7525 16.4084 17.5806 17.5806C16.4087 18.7528 15.75 20.3425 15.75 22C15.75 26.3628 15.75 32 15.75 32C15.75 32.6903 16.3094 33.25 17 33.25H47C47.6906 33.25 48.25 32.6903 48.25 32V22ZM45.75 30.75V22C45.75 21.0053 45.355 20.0516 44.6519 19.3484C43.9481 18.645 42.9944 18.25 42 18.25C36.4513 18.25 27.5487 18.25 22 18.25C21.0056 18.25 20.0519 18.645 19.3481 19.3484C18.645 20.0516 18.25 21.0053 18.25 22V30.75H45.75Z" fill="white"/>
<path fill-rule="evenodd" clip-rule="evenodd" d="M18.25 33.25V42C18.25 42.9947 18.645 43.9484 19.3481 44.6516C20.0519 45.355 21.0056 45.75 22 45.75C27.5487 45.75 36.4513 45.75 42 45.75C42.9944 45.75 43.9481 45.355 44.6519 44.6516C45.355 43.9484 45.75 42.9947 45.75 42C45.75 41.31 46.31 40.75 47 40.75C47.69 40.75 48.25 41.31 48.25 42C48.25 43.6575 47.5912 45.2472 46.4194 46.4194C45.2475 47.5916 43.6575 48.25 42 48.25C36.4513 48.25 27.5487 48.25 22 48.25C20.3425 48.25 18.7525 47.5916 17.5806 46.4194C16.4087 45.2472 15.75 43.6575 15.75 42V32C15.75 31.3097 16.3094 30.75 17 30.75H47C47.6906 30.75 48.25 31.3097 48.25 32C48.25 32 48.25 34.2462 48.25 37C48.25 37.69 47.69 38.25 47 38.25C46.31 38.25 45.75 37.69 45.75 37V33.25H18.25Z" fill="white"/>
<path d="M27 22H22V27H27V22Z" fill="#DB2A6B"/>
<path fill-rule="evenodd" clip-rule="evenodd" d="M28.25 22C28.25 21.3094 27.6906 20.75 27 20.75H22C21.3094 20.75 20.75 21.3094 20.75 22V27C20.75 27.6906 21.3094 28.25 22 28.25H27C27.6906 28.25 28.25 27.6906 28.25 27V22ZM23.25 23.25V25.75H25.75V23.25H23.25Z" fill="white"/>
<path fill-rule="evenodd" clip-rule="evenodd" d="M32 23.25H42.0001C42.6901 23.25 43.2501 22.69 43.2501 22C43.2501 21.31 42.6901 20.75 42.0001 20.75H32C31.31 20.75 30.75 21.31 30.75 22C30.75 22.69 31.31 23.25 32 23.25Z" fill="white"/>
<path fill-rule="evenodd" clip-rule="evenodd" d="M32 28.25H42.0001C42.6901 28.25 43.2501 27.69 43.2501 27C43.2501 26.31 42.6901 25.75 42.0001 25.75H32C31.31 25.75 30.75 26.31 30.75 27C30.75 27.69 31.31 28.25 32 28.25Z" fill="white"/>
<path fill-rule="evenodd" clip-rule="evenodd" d="M45.5356 45.5356C44.5981 46.4731 43.3263 47 42 47H32L28.25 43.25L35.75 35.75L45.5356 45.5356ZM32 47H22C20.6738 47 19.4019 46.4731 18.4644 45.5356L24.5 39.5L32 47Z" fill="#DB2A6B"/>
<path fill-rule="evenodd" clip-rule="evenodd" d="M28.25 41.4825L34.8663 34.8662C35.3544 34.3781 36.1456 34.3781 36.6338 34.8662L46.4194 44.6519C46.9063 45.1387 46.9075 45.9281 46.4219 46.4169C46.4219 46.4169 46.4219 46.4169 46.4194 46.4194C45.2475 47.5912 43.6575 48.25 42 48.25H32H22C20.3425 48.25 18.7525 47.5912 17.5806 46.4194L17.5781 46.4169C17.0925 45.9281 17.0938 45.1387 17.5806 44.6519L23.6163 38.6162C24.1044 38.1281 24.8956 38.1281 25.3838 38.6162L28.25 41.4825ZM43.6163 45.3838L35.75 37.5175L30.0175 43.25L32.5175 45.75H42C42.565 45.75 43.1169 45.6225 43.6163 45.3838ZM28.9825 45.75L24.5 41.2675L20.3838 45.3838C20.8838 45.6225 21.4356 45.75 22 45.75H28.9825Z" fill="white"/>
</g>
<defs>
<clipPath id="clip0_1313_901">
<rect width="40" height="40" fill="white" transform="translate(12 12)"/>
</clipPath>
</defs>
</svg>
