<svg width="209" height="32" viewBox="0 0 209 32" fill="none" xmlns="http://www.w3.org/2000/svg">
<path d="M18.98 9.432C18.404 8.376 17.612 7.572 16.604 7.02C15.596 6.468 14.42 6.192 13.076 6.192C11.588 6.192 10.268 6.528 9.116 7.2C7.964 7.872 7.064 8.832 6.416 10.08C5.768 11.328 5.444 12.768 5.444 14.4C5.444 16.08 5.768 17.544 6.416 18.792C7.088 20.04 8.012 21 9.188 21.672C10.364 22.344 11.732 22.68 13.292 22.68C15.212 22.68 16.784 22.176 18.008 21.168C19.232 20.136 20.036 18.708 20.42 16.884H11.78V13.032H25.388V17.424C25.052 19.176 24.332 20.796 23.228 22.284C22.124 23.772 20.696 24.972 18.944 25.884C17.216 26.772 15.272 27.216 13.112 27.216C10.688 27.216 8.492 26.676 6.524 25.596C4.58 24.492 3.044 22.968 1.916 21.024C0.812 19.08 0.26 16.872 0.26 14.4C0.26 11.928 0.812 9.72 1.916 7.776C3.044 5.808 4.58 4.284 6.524 3.204C8.492 2.1 10.676 1.548 13.076 1.548C15.908 1.548 18.368 2.244 20.456 3.636C22.544 5.004 23.984 6.936 24.776 9.432H18.98ZM34.1568 0.36V27H29.1168V0.36H34.1568ZM47.9923 27.324C46.0723 27.324 44.3443 26.904 42.8083 26.064C41.2723 25.2 40.0603 23.988 39.1723 22.428C38.3083 20.868 37.8763 19.068 37.8763 17.028C37.8763 14.988 38.3203 13.188 39.2083 11.628C40.1203 10.068 41.3563 8.868 42.9163 8.028C44.4763 7.164 46.2163 6.732 48.1363 6.732C50.0563 6.732 51.7963 7.164 53.3563 8.028C54.9163 8.868 56.1403 10.068 57.0283 11.628C57.9403 13.188 58.3963 14.988 58.3963 17.028C58.3963 19.068 57.9283 20.868 56.9923 22.428C56.0803 23.988 54.8323 25.2 53.2483 26.064C51.6883 26.904 49.9363 27.324 47.9923 27.324ZM47.9923 22.932C48.9043 22.932 49.7563 22.716 50.5483 22.284C51.3643 21.828 52.0123 21.156 52.4923 20.268C52.9723 19.38 53.2123 18.3 53.2123 17.028C53.2123 15.132 52.7083 13.68 51.7003 12.672C50.7163 11.64 49.5043 11.124 48.0643 11.124C46.6243 11.124 45.4123 11.64 44.4283 12.672C43.4683 13.68 42.9883 15.132 42.9883 17.028C42.9883 18.924 43.4563 20.388 44.3923 21.42C45.3523 22.428 46.5523 22.932 47.9923 22.932ZM89.7414 7.056L83.9094 27H78.4734L74.8374 13.068L71.2014 27H65.7294L59.8614 7.056H64.9734L68.5014 22.248L72.3174 7.056H77.6454L81.3894 22.212L84.9174 7.056H89.7414Z" fill="#264065"/>
<path d="M111.188 31.428L107.372 26.856C106.316 27.12 105.236 27.252 104.132 27.252C101.78 27.252 99.6204 26.7 97.6524 25.596C95.6844 24.492 94.1244 22.968 92.9724 21.024C91.8204 19.056 91.2444 16.836 91.2444 14.364C91.2444 11.916 91.8204 9.72 92.9724 7.776C94.1244 5.808 95.6844 4.272 97.6524 3.168C99.6204 2.064 101.78 1.512 104.132 1.512C106.508 1.512 108.668 2.064 110.612 3.168C112.58 4.272 114.128 5.808 115.256 7.776C116.408 9.72 116.984 11.916 116.984 14.364C116.984 16.596 116.504 18.636 115.544 20.484C114.608 22.308 113.324 23.796 111.692 24.948L117.452 31.428H111.188ZM96.4284 14.364C96.4284 16.044 96.7524 17.52 97.4004 18.792C98.0484 20.064 98.9484 21.048 100.1 21.744C101.276 22.416 102.62 22.752 104.132 22.752C105.644 22.752 106.976 22.416 108.128 21.744C109.28 21.048 110.18 20.064 110.828 18.792C111.476 17.52 111.8 16.044 111.8 14.364C111.8 12.684 111.476 11.22 110.828 9.972C110.18 8.7 109.28 7.728 108.128 7.056C106.976 6.384 105.644 6.048 104.132 6.048C102.62 6.048 101.276 6.384 100.1 7.056C98.9484 7.728 98.0484 8.7 97.4004 9.972C96.7524 11.22 96.4284 12.684 96.4284 14.364ZM139.632 7.056V27H134.556V24.48C133.908 25.344 133.056 26.028 132 26.532C130.968 27.012 129.84 27.252 128.616 27.252C127.056 27.252 125.676 26.928 124.476 26.28C123.276 25.608 122.328 24.636 121.632 23.364C120.96 22.068 120.624 20.532 120.624 18.756V7.056H125.664V18.036C125.664 19.62 126.06 20.844 126.852 21.708C127.644 22.548 128.724 22.968 130.092 22.968C131.484 22.968 132.576 22.548 133.368 21.708C134.16 20.844 134.556 19.62 134.556 18.036V7.056H139.632ZM163.145 16.596C163.145 17.316 163.097 17.964 163.001 18.54H148.421C148.541 19.98 149.045 21.108 149.933 21.924C150.821 22.74 151.913 23.148 153.209 23.148C155.081 23.148 156.413 22.344 157.205 20.736H162.641C162.065 22.656 160.961 24.24 159.329 25.488C157.697 26.712 155.693 27.324 153.317 27.324C151.397 27.324 149.669 26.904 148.133 26.064C146.621 25.2 145.433 23.988 144.569 22.428C143.729 20.868 143.309 19.068 143.309 17.028C143.309 14.964 143.729 13.152 144.569 11.592C145.409 10.032 146.585 8.832 148.097 7.992C149.609 7.152 151.349 6.732 153.317 6.732C155.213 6.732 156.905 7.14 158.393 7.956C159.905 8.772 161.069 9.936 161.885 11.448C162.725 12.936 163.145 14.652 163.145 16.596ZM157.925 15.156C157.901 13.86 157.433 12.828 156.521 12.06C155.609 11.268 154.493 10.872 153.173 10.872C151.925 10.872 150.869 11.256 150.005 12.024C149.165 12.768 148.649 13.812 148.457 15.156H157.925ZM185.364 16.596C185.364 17.316 185.316 17.964 185.22 18.54H170.64C170.76 19.98 171.264 21.108 172.152 21.924C173.04 22.74 174.132 23.148 175.428 23.148C177.3 23.148 178.632 22.344 179.424 20.736H184.86C184.284 22.656 183.18 24.24 181.548 25.488C179.916 26.712 177.912 27.324 175.536 27.324C173.616 27.324 171.888 26.904 170.352 26.064C168.84 25.2 167.652 23.988 166.788 22.428C165.948 20.868 165.528 19.068 165.528 17.028C165.528 14.964 165.948 13.152 166.788 11.592C167.628 10.032 168.804 8.832 170.316 7.992C171.828 7.152 173.568 6.732 175.536 6.732C177.432 6.732 179.124 7.14 180.612 7.956C182.124 8.772 183.288 9.936 184.104 11.448C184.944 12.936 185.364 14.652 185.364 16.596ZM180.144 15.156C180.12 13.86 179.652 12.828 178.74 12.06C177.828 11.268 176.712 10.872 175.392 10.872C174.144 10.872 173.088 11.256 172.224 12.024C171.384 12.768 170.868 13.812 170.676 15.156H180.144ZM200.095 6.768C202.471 6.768 204.391 7.524 205.855 9.036C207.319 10.524 208.051 12.612 208.051 15.3V27H203.011V15.984C203.011 14.4 202.615 13.188 201.823 12.348C201.031 11.484 199.951 11.052 198.583 11.052C197.191 11.052 196.087 11.484 195.271 12.348C194.479 13.188 194.083 14.4 194.083 15.984V27H189.043V7.056H194.083V9.54C194.755 8.676 195.607 8.004 196.639 7.524C197.695 7.02 198.847 6.768 200.095 6.768Z" fill="#A9D6CB"/>
</svg>
