<svg width="73" height="72" viewBox="0 0 73 72" fill="none" xmlns="http://www.w3.org/2000/svg">
<circle cx="36.5" cy="36" r="36" fill="#A9D6CB"/>
<path d="M19.1508 34.6595C18.3336 35.4805 17.8749 36.5917 17.875 37.75V44.1725C17.8717 47.0167 18.8162 49.781 20.5592 52.0285C22.3022 54.2761 24.7445 55.8788 27.5 56.5835V59.625C27.5 59.8571 27.5922 60.0796 27.7563 60.2437C27.9204 60.4078 28.1429 60.5 28.375 60.5H40.625C40.8571 60.5 41.0796 60.4078 41.2437 60.2437C41.4078 60.0796 41.5 59.8571 41.5 59.625V56.5835C44.2556 55.8788 46.6978 54.2761 48.4408 52.0285C50.1838 49.781 51.1283 47.0167 51.125 44.1725V40.8204C51.9664 40.798 52.7941 40.6016 53.5558 40.2435C54.3175 39.8854 54.9968 39.3733 55.5508 38.7396L57.9071 36.0621C57.99 35.9674 58.0514 35.8559 58.0872 35.7353C58.123 35.6147 58.1324 35.4878 58.1147 35.3632C58.097 35.2386 58.0527 35.1193 57.9847 35.0134C57.9167 34.9075 57.8267 34.8176 57.7208 34.7496L54.7125 32.8281C53.8601 32.2816 52.8846 31.957 51.8748 31.8838C50.8649 31.8106 49.8528 31.9912 48.9305 32.409L49.6156 31.2356L52.6781 30.1725C54.0637 29.6995 55.2325 28.7434 55.9708 27.4792C56.7092 26.215 56.9676 24.7271 56.6988 23.288L56.06 19.7784C56.0373 19.6543 55.9881 19.5366 55.9156 19.4333C55.8432 19.33 55.7492 19.2436 55.6403 19.1801C55.5313 19.1165 55.4099 19.0772 55.2844 19.065C55.1588 19.0527 55.0321 19.0677 54.9129 19.109L51.5424 20.2771C50.1577 20.7511 48.9899 21.7078 48.2526 22.9721C47.5152 24.2364 47.2577 25.7239 47.527 27.1625L48.108 30.3519L47.4386 31.4981C47.3414 30.4939 46.9962 29.5297 46.434 28.6919C45.8717 27.8542 45.1102 27.1693 44.2178 26.6988L41.0678 25.0223C40.9563 24.9628 40.8333 24.9282 40.7073 24.9207C40.5812 24.9133 40.455 24.9333 40.3373 24.9793C40.2197 25.0252 40.1134 25.0961 40.0258 25.1871C39.9381 25.278 39.8712 25.3869 39.8296 25.5061L38.6563 28.8723C38.1397 30.3412 38.2041 31.9521 38.8365 33.375H32.0806L30.7778 29.2039C30.4721 28.221 29.8021 27.3922 28.905 26.8874C28.008 26.3826 26.9518 26.24 25.953 26.4888C24.9542 26.7376 24.0884 27.359 23.533 28.2256C22.9776 29.0922 22.7746 30.1385 22.9658 31.1499L23.3875 33.375H22.25C21.0876 33.3757 19.9729 33.8377 19.1508 34.6595ZM52.1208 21.93L54.527 21.097L54.9829 23.6021C55.1747 24.6301 54.99 25.6927 54.4625 26.5956C53.9349 27.4984 53.0999 28.1811 52.1103 28.5188L49.7049 29.3526L49.249 26.8475C49.0571 25.8196 49.2417 24.7569 49.769 23.8539C50.2963 22.9509 51.1312 22.268 52.1208 21.93ZM39.75 58.75H29.25V56.9125C29.7322 56.9685 30.2171 56.9977 30.7025 57H38.2975C38.7829 56.9977 39.2678 56.9685 39.75 56.9125V58.75ZM49.375 44.1725C49.3755 45.6274 49.0893 47.068 48.5327 48.4122C47.9762 49.7564 47.1602 50.9778 46.1315 52.0065C45.1028 53.0352 43.8814 53.8512 42.5372 54.4077C41.193 54.9643 39.7524 55.2505 38.2975 55.25H30.7025C27.8655 55.2595 25.1339 54.1749 23.0761 52.2219C21.0183 50.2688 19.7926 47.5977 19.6539 44.764C20.6705 45.3303 21.8152 45.6268 22.9789 45.625H24.875C25.1071 45.625 25.3296 45.5328 25.4937 45.3687C25.6578 45.2046 25.75 44.9821 25.75 44.75C25.75 44.5179 25.6578 44.2954 25.4937 44.1313C25.3296 43.9672 25.1071 43.875 24.875 43.875H22.9754C21.7423 43.8767 20.551 43.4284 19.625 42.6141V41.2273C20.3778 41.8063 21.3002 42.1218 22.25 42.125H46.75C47.6996 42.1206 48.6216 41.8053 49.375 41.2273V44.1725ZM44.2834 40.375L45.4209 38.429L47.6591 39.857C47.7703 39.9288 47.8884 39.9804 48.0021 40.0434C47.6193 40.2575 47.1886 40.3716 46.75 40.375H44.2834ZM48.1334 35.1014C48.8202 34.3129 49.7681 33.7983 50.8034 33.6516C51.8387 33.5049 52.8922 33.7359 53.771 34.3025L55.9183 35.6719L54.2365 37.5838C53.5498 38.3724 52.6019 38.8871 51.5666 39.0339C50.5312 39.1806 49.4777 38.9494 48.5989 38.3826L46.4525 37.0124L48.1334 35.1014ZM40.3083 29.4498L41.1465 27.0453L43.3944 28.2423C44.3196 28.7294 45.0384 29.5334 45.4194 30.5071C45.8003 31.4808 45.818 32.5591 45.469 33.5448L44.6308 35.9484L42.382 34.7523C41.4573 34.2647 40.7389 33.4606 40.3583 32.487C39.9777 31.5133 39.9602 30.4352 40.3091 29.4498H40.3083ZM40.0125 35.125C40.4631 35.5947 40.9853 35.9902 41.5595 36.2966L43.9063 37.5461L42.2578 40.375H34.2681L33.7213 38.625H35.375C35.6071 38.625 35.8296 38.5328 35.9937 38.3687C36.1578 38.2046 36.25 37.9821 36.25 37.75C36.25 37.5179 36.1578 37.2954 35.9937 37.1313C35.8296 36.9672 35.6071 36.875 35.375 36.875H33.1744L32.6275 35.125H40.0125ZM25.1725 28.9501C25.4345 28.6333 25.7772 28.3931 26.1645 28.255C26.5517 28.1169 26.9691 28.086 27.3724 28.1655C27.7758 28.245 28.1502 28.432 28.456 28.7067C28.7619 28.9814 28.9878 29.3337 29.11 29.7263L32.435 40.375H26.4763L24.686 30.827C24.6238 30.4976 24.6352 30.1586 24.7193 29.8341C24.8034 29.5097 24.9582 29.2078 25.1725 28.9501ZM23.7113 35.125L24.0394 36.875H22.25C22.0179 36.875 21.7954 36.9672 21.6313 37.1313C21.4672 37.2954 21.375 37.5179 21.375 37.75C21.375 37.9821 21.4672 38.2046 21.6313 38.3687C21.7954 38.5328 22.0179 38.625 22.25 38.625H24.3675L24.6956 40.375H22.25C21.5538 40.375 20.8861 40.0984 20.3939 39.6062C19.9016 39.1139 19.625 38.4462 19.625 37.75C19.625 37.0538 19.9016 36.3861 20.3939 35.8939C20.8861 35.4016 21.5538 35.125 22.25 35.125H23.7113Z" fill="#264065"/>
<path d="M29.25 43.875H28.375C28.1429 43.875 27.9204 43.9672 27.7563 44.1313C27.5922 44.2954 27.5 44.5179 27.5 44.75C27.5 44.9821 27.5922 45.2046 27.7563 45.3687C27.9204 45.5328 28.1429 45.625 28.375 45.625H29.25C29.4821 45.625 29.7046 45.5328 29.8687 45.3687C30.0328 45.2046 30.125 44.9821 30.125 44.75C30.125 44.5179 30.0328 44.2954 29.8687 44.1313C29.7046 43.9672 29.4821 43.875 29.25 43.875ZM38.875 38.625H39.75C39.9821 38.625 40.2046 38.5328 40.3687 38.3687C40.5328 38.2046 40.625 37.9821 40.625 37.75C40.625 37.5179 40.5328 37.2954 40.3687 37.1313C40.2046 36.9672 39.9821 36.875 39.75 36.875H38.875C38.6429 36.875 38.4204 36.9672 38.2563 37.1313C38.0922 37.2954 38 37.5179 38 37.75C38 37.9821 38.0922 38.2046 38.2563 38.3687C38.4204 38.5328 38.6429 38.625 38.875 38.625ZM28.5036 17.3966C28.397 17.7246 28.3561 18.0703 28.3831 18.4141C28.4101 18.7578 28.5047 19.0929 28.6612 19.4002C28.8178 19.7074 29.0334 19.9808 29.2957 20.2047C29.5579 20.4285 29.8617 20.5986 30.1897 20.705C30.5625 20.8262 30.9519 20.8879 31.3439 20.8879C31.4585 20.8879 31.5705 20.8651 31.6842 20.8546C31.5887 21.2405 31.582 21.643 31.6648 22.0318C31.7475 22.4207 31.9175 22.7856 32.1618 23.0992C32.4062 23.4127 32.7186 23.6667 33.0754 23.8419C33.4323 24.017 33.8242 24.1089 34.2217 24.1105C34.3609 24.1105 34.4999 24.0997 34.6374 24.0781C34.9782 24.0251 35.3051 23.905 35.5992 23.7248C35.8933 23.5446 36.1487 23.3078 36.3506 23.0281C36.6508 22.6159 36.8626 22.1462 36.9727 21.6483C37.4882 21.9678 38.0987 22.0982 38.6997 22.0172C39.3008 21.9363 39.855 21.649 40.2676 21.2045C40.6801 20.76 40.9254 20.1859 40.9614 19.5805C40.9974 18.9751 40.8219 18.376 40.4649 17.8858C40.1683 17.4775 39.7917 17.1339 39.358 16.876C39.8193 16.4817 40.1297 15.9397 40.2365 15.3423C40.3432 14.7449 40.2396 14.1289 39.9434 13.5993C39.6472 13.0696 39.1766 12.659 38.6116 12.4372C38.0467 12.2154 37.4225 12.1962 36.845 12.3829C36.3652 12.5389 35.9222 12.7911 35.543 13.124C35.3098 12.5646 34.8903 12.1032 34.3556 11.818C33.8209 11.5328 33.2039 11.4413 32.6095 11.5592C32.0151 11.6771 31.4797 11.997 31.0943 12.4647C30.7089 12.9324 30.4972 13.519 30.4951 14.125C30.4952 14.6286 30.5976 15.1269 30.7961 15.5898C30.2783 15.631 29.7843 15.8246 29.3763 16.1461C28.9684 16.4677 28.6647 16.9028 28.5036 17.3966ZM39.05 18.913C39.1176 19.006 39.1662 19.1113 39.193 19.2231C39.2199 19.3348 39.2244 19.4507 39.2065 19.5642C39.1885 19.6778 39.1484 19.7866 39.0883 19.8846C39.0283 19.9826 38.9496 20.0678 38.8566 20.1354C38.7637 20.2029 38.6583 20.2515 38.5466 20.2784C38.4348 20.3052 38.3189 20.3098 38.2054 20.2919C38.0919 20.2739 37.983 20.2338 37.885 20.1737C37.787 20.1137 37.7018 20.035 37.6342 19.942L36.4092 18.2559L37.146 18.1334C37.5045 18.0729 37.8728 18.1138 38.2092 18.2516C38.5457 18.3893 38.8369 18.6184 39.05 18.913ZM36.0575 15.6169C36.1102 15.257 36.2627 14.9192 36.4978 14.6417C36.7329 14.3642 37.0412 14.1582 37.3875 14.0471C37.4744 14.0181 37.5654 14.0034 37.657 14.0034C37.8659 14.0026 38.0681 14.0765 38.2272 14.2118C38.3864 14.3471 38.4918 14.5349 38.5246 14.7411C38.5574 14.9474 38.5153 15.1586 38.4059 15.3366C38.2965 15.5145 38.1271 15.6475 37.9282 15.7114L35.9464 16.3554L36.0575 15.6169ZM35.0897 19.9481C35.2586 20.2702 35.3339 20.6332 35.307 20.9958C35.2801 21.3585 35.1521 21.7064 34.9375 22C34.8699 22.093 34.7847 22.1717 34.6867 22.2317C34.5887 22.2918 34.4799 22.3319 34.3664 22.3499C34.2528 22.3678 34.1369 22.3632 34.0252 22.3364C33.9134 22.3095 33.8081 22.2609 33.7151 22.1934C33.6222 22.1258 33.5434 22.0406 33.4834 21.9426C33.4234 21.8446 33.3832 21.7358 33.3653 21.6222C33.3473 21.5087 33.3519 21.3928 33.3787 21.2811C33.4056 21.1693 33.4542 21.064 33.5217 20.971L34.7467 19.2849L35.0897 19.9481ZM33.1201 13.25C33.3522 13.25 33.5747 13.3422 33.7388 13.5063C33.9029 13.6704 33.9951 13.8929 33.9951 14.125V16.2093L33.3266 15.875C33.0007 15.7136 32.7266 15.4641 32.5355 15.1548C32.3443 14.8454 32.2437 14.4887 32.2451 14.125C32.2451 13.8929 32.3373 13.6704 32.5014 13.5063C32.6655 13.3422 32.8881 13.25 33.1201 13.25ZM30.1687 17.9374C30.2258 17.7618 30.3369 17.6087 30.4862 17.5001C30.6355 17.3915 30.8154 17.333 31 17.3328C31.0924 17.3327 31.1842 17.3472 31.2721 17.3756L33.254 18.0196L32.729 18.5525C32.4747 18.8124 32.1527 18.9958 31.7994 19.082C31.4462 19.1681 31.0759 19.1536 30.7305 19.0399C30.5098 18.9682 30.3267 18.8117 30.2213 18.605C30.116 18.3982 30.0971 18.1581 30.1687 17.9374ZM27.0161 15.4524C26.9133 15.4009 26.8014 15.3702 26.6868 15.3621C26.5721 15.3539 26.457 15.3684 26.348 15.4047C26.2389 15.441 26.1381 15.4985 26.0513 15.5737C25.9644 15.649 25.8933 15.7407 25.8419 15.8435C25.5112 16.509 25.3391 17.242 25.3391 17.9851C25.3391 18.7282 25.5112 19.4612 25.8419 20.1266C25.9149 20.2728 26.0273 20.3955 26.1665 20.481C26.3057 20.5665 26.466 20.6114 26.6294 20.6105C26.7649 20.6105 26.8986 20.5787 27.0196 20.5178C27.1225 20.4664 27.2142 20.3953 27.2896 20.3085C27.365 20.2217 27.4226 20.1209 27.459 20.0119C27.4954 19.9028 27.5099 19.7877 27.5018 19.673C27.4937 19.5583 27.463 19.4463 27.4116 19.3435C27.2014 18.9215 27.092 18.4565 27.092 17.9851C27.092 17.5136 27.2014 17.0486 27.4116 16.6266C27.4629 16.5236 27.4934 16.4114 27.5012 16.2966C27.5091 16.1818 27.4943 16.0665 27.4575 15.9574C27.4208 15.8484 27.3629 15.7476 27.2871 15.6609C27.2114 15.5743 27.1193 15.5034 27.0161 15.4524ZM42.4284 20.8284C42.3364 20.9025 42.2603 20.9944 42.2048 21.0987C42.1493 21.203 42.1155 21.3174 42.1054 21.4351C42.0953 21.5528 42.1092 21.6713 42.1461 21.7835C42.1831 21.8957 42.2423 21.9992 42.3204 22.0879C42.3984 22.1765 42.4936 22.2485 42.6002 22.2994C42.7067 22.3503 42.8225 22.3791 42.9405 22.3841C43.0586 22.389 43.1764 22.37 43.2868 22.3282C43.3973 22.2864 43.4982 22.2227 43.5834 22.1409L43.7382 22.0044C44.2569 21.5516 44.6384 20.9626 44.8395 20.3041C45.0405 19.6456 45.0531 18.9439 44.8757 18.2786C44.849 18.1649 44.7998 18.0578 44.731 17.9634C44.6622 17.869 44.5752 17.7894 44.4752 17.7292C44.3751 17.669 44.264 17.6294 44.1484 17.6128C44.0328 17.5962 43.915 17.6029 43.8021 17.6325C43.6891 17.6621 43.5832 17.714 43.4906 17.7852C43.3981 17.8564 43.3207 17.9454 43.263 18.0469C43.2054 18.1485 43.1686 18.2606 43.155 18.3766C43.1413 18.4925 43.151 18.6101 43.1835 18.7223C43.2768 19.0738 43.2698 19.4445 43.1632 19.7923C43.0567 20.1401 42.8548 20.4511 42.5806 20.6901L42.4284 20.8284Z" fill="#264065"/>
</svg>
