<svg width="224" height="932" viewBox="0 0 224 932" fill="none" xmlns="http://www.w3.org/2000/svg">
<path opacity="0.05" d="M4.00011 223.032L4.00012 144.696L16.6721 144.696L26.1761 168.312L77.1521 147.864L77.1521 72.984L26.1761 52.536L16.6721 75.576L4.00012 75.576L4.00012 0.119987L16.6721 0.119988L26.1761 23.736L207.328 94.584L207.328 124.248L26.1761 197.976L16.6721 223.032L4.00011 223.032ZM96.7361 140.376L177.664 109.848L96.7361 80.472L96.7361 140.376ZM4.00011 305.146L4.00011 229.402L16.3841 229.402L25.8881 253.594L128.704 253.594L128.704 229.402L145.984 229.402C149.632 236.89 151.456 245.338 151.456 254.746C151.456 264.154 149.44 270.682 145.408 274.33C141.376 277.978 135.424 279.994 127.552 280.378C133.312 282.298 138.496 286.234 143.104 292.186C148.672 299.29 151.456 308.698 151.456 320.41C151.456 325.594 150.784 330.49 149.44 335.098C148.096 339.898 146.752 343.354 145.408 345.466L143.392 348.922L109.408 348.922L109.408 331.642L126.688 327.898C127.84 326.746 128.416 323.578 128.416 318.394C128.416 313.21 127.648 308.218 126.112 303.418C124.768 298.618 123.04 294.874 120.928 292.186C116.32 286.81 111.616 282.97 106.816 280.666L25.8881 280.666L16.3841 305.146L4.00011 305.146ZM67.0721 408.7C50.5601 408.7 39.3281 411.196 33.3761 416.188C27.4241 421.18 24.4481 428.764 24.4481 438.94C24.4481 449.116 25.9841 457.468 29.0561 463.996L14.6561 469.756C13.6961 468.988 12.4481 467.836 10.9121 466.3C9.3761 464.956 7.2641 461.404 4.5761 455.644C2.0801 449.884 0.832103 443.548 0.832103 436.636C0.832104 419.164 5.7281 405.628 15.5201 396.028C25.5041 386.428 40.0001 381.628 59.0081 381.628L125.248 381.628L125.248 366.364L142.24 366.364L169.888 394.012L169.888 408.7L148 408.7L148 457.084L125.248 457.084L125.248 408.7L67.0721 408.7ZM4.0001 608.342L4.0001 485.942L23.5841 485.942L124.672 574.07L124.672 510.422L107.968 504.95L107.968 488.534L147.424 488.534L147.424 604.31L124.672 604.31L27.6161 520.502L27.6161 587.894L44.8961 593.366L44.8961 608.342L4.0001 608.342ZM4.00009 710.159L4.00009 634.415L16.3841 634.415L25.8881 658.607L128.704 658.607L128.704 634.415L145.984 634.415C149.632 641.903 151.456 650.543 151.456 660.335C151.456 670.319 149.056 677.039 144.256 680.495C139.648 683.951 132.544 685.679 122.944 685.679L25.8881 685.679L16.3841 710.159L4.00009 710.159ZM184.576 686.831C180.16 682.415 177.952 677.039 177.952 670.703C177.952 664.367 180.16 658.991 184.576 654.575C188.992 650.159 194.368 647.951 200.704 647.951C207.04 647.951 212.416 650.159 216.832 654.575C221.248 658.991 223.456 664.367 223.456 670.703C223.456 677.039 221.248 682.415 216.832 686.831C212.416 691.247 207.04 693.455 200.704 693.455C194.368 693.455 188.992 691.247 184.576 686.831ZM1.12009 804.344C1.12009 782.648 7.26409 764.984 19.5521 751.352C32.0321 737.912 50.1761 731.192 73.9841 731.192C97.7921 731.192 116.608 738.104 130.432 751.928C144.448 765.752 151.456 781.88 151.456 800.312C151.456 844.088 125.536 865.976 73.6961 865.976L73.6961 759.128L72.2561 759.128C58.6241 759.128 47.1041 763.928 37.6961 773.528C28.2881 783.128 23.5841 796.184 23.5841 812.696C23.5841 819.8 24.3521 826.52 25.8881 832.856C27.6161 839.192 29.3441 843.8 31.0721 846.68L33.3761 850.712L18.4001 859.064C18.0161 858.488 17.3441 857.624 16.3841 856.472C15.6161 855.512 14.2721 853.304 12.3521 849.848C10.4321 846.392 8.70409 842.648 7.16809 838.616C3.13609 828.44 1.12009 817.016 1.12009 804.344ZM92.1281 839.192C104.032 838.232 113.056 834.296 119.2 827.384C125.536 820.664 128.704 811.832 128.704 800.888C128.704 790.136 125.632 781.208 119.488 774.104C113.536 767 104.416 762.392 92.1281 760.28L92.1281 839.192ZM5.72808 926.942C2.46408 923.678 0.832082 919.646 0.832082 914.846C0.832082 910.046 2.46408 906.014 5.72808 902.75C8.99208 899.486 13.0241 897.854 17.8241 897.854C22.6241 897.854 26.6561 899.486 29.9201 902.75C33.1841 906.014 34.8161 910.046 34.8161 914.846C34.8161 919.646 33.1841 923.678 29.9201 926.942C26.6561 930.206 22.6241 931.838 17.8241 931.838C13.0241 931.838 8.99208 930.206 5.72808 926.942Z" fill="white"/>
</svg>
