<svg width="160" height="160" viewBox="0 0 160 160" fill="none" xmlns="http://www.w3.org/2000/svg">
<g filter="url(#filter0_d_1313_1014)">
<rect x="50" y="26" width="60" height="60" fill="#F6F6F6"/>
</g>
<path d="M70.1013 39.0341C65.4272 39.0341 61.6286 42.8432 61.6286 47.5172V64.4834C61.6286 69.1575 65.4272 72.9665 70.1013 72.9665H89.8952C94.5692 72.9665 98.3679 69.1575 98.3679 64.4834V47.5172C98.3679 42.8432 94.5692 39.0341 89.8952 39.0341H70.1013ZM70.1013 41.8618H89.8952C93.052 41.8618 95.5506 44.3604 95.5506 47.5172V64.4834C95.5506 67.6402 93.052 70.1388 89.8952 70.1388H70.1013C66.9445 70.1388 64.4459 67.6402 64.4459 64.4834V47.5172C64.4459 44.3604 66.9445 41.8618 70.1013 41.8618Z" fill="#303030"/>
<path d="M63.0373 47.5172C62.6623 47.5172 62.3027 47.6662 62.0375 47.9313C61.7724 48.1965 61.6234 48.5561 61.6234 48.9311C61.6234 49.306 61.7724 49.6657 62.0375 49.9308C62.3027 50.196 62.6623 50.3449 63.0373 50.3449H96.9593C97.3342 50.3449 97.6939 50.196 97.959 49.9308C98.2242 49.6657 98.3731 49.306 98.3731 48.9311C98.3731 48.5561 98.2242 48.1965 97.959 47.9313C97.6939 47.6662 97.3342 47.5172 96.9593 47.5172H63.0373ZM89.7491 43.2809C89.3742 43.3003 89.0223 43.4678 88.7709 43.7467C88.5194 44.0255 88.3891 44.3928 88.4084 44.7678C88.4278 45.1427 88.5953 45.4946 88.8742 45.7461C89.153 45.9975 89.5203 46.1279 89.8952 46.1086H91.3039C91.4895 46.1086 91.6734 46.072 91.8449 46.001C92.0165 45.9299 92.1723 45.8258 92.3036 45.6945C92.4349 45.5632 92.539 45.4073 92.6101 45.2358C92.6811 45.0642 92.7177 44.8804 92.7177 44.6947C92.7177 44.5091 92.6811 44.3252 92.6101 44.1537C92.539 43.9821 92.4349 43.8263 92.3036 43.695C92.1723 43.5637 92.0165 43.4595 91.8449 43.3885C91.6734 43.3174 91.4895 43.2809 91.3039 43.2809H89.8952C89.8466 43.2784 89.7978 43.2784 89.7491 43.2809H89.7491ZM82.6851 43.2809C82.3101 43.2989 81.9577 43.4651 81.7052 43.7429C81.4528 44.0208 81.3211 44.3876 81.3391 44.7625C81.3571 45.1375 81.5233 45.49 81.8011 45.7424C82.079 45.9949 82.4458 46.1266 82.8208 46.1086H84.2398C84.4255 46.1086 84.6093 46.072 84.7809 46.001C84.9524 45.9299 85.1083 45.8258 85.2396 45.6945C85.3709 45.5632 85.475 45.4073 85.546 45.2358C85.6171 45.0642 85.6537 44.8804 85.6537 44.6947C85.6537 44.5091 85.6171 44.3252 85.546 44.1537C85.475 43.9821 85.3709 43.8263 85.2396 43.695C85.1083 43.5637 84.9524 43.4595 84.7809 43.3885C84.6093 43.3174 84.4255 43.2809 84.2398 43.2809H82.8208C82.7756 43.2787 82.7303 43.2787 82.6851 43.2809Z" fill="#303030"/>
<path d="M75.7359 47.4963C75.5502 47.4997 75.367 47.5396 75.1967 47.6138C75.0265 47.688 74.8725 47.795 74.7436 47.9288C74.6147 48.0625 74.5135 48.2203 74.4456 48.3932C74.3777 48.566 74.3446 48.7506 74.3481 48.9363V71.5475C74.3481 71.7331 74.3847 71.917 74.4557 72.0885C74.5268 72.2601 74.6309 72.4159 74.7622 72.5472C74.8935 72.6785 75.0493 72.7826 75.2209 72.8537C75.3924 72.9247 75.5763 72.9613 75.7619 72.9613C75.9476 72.9613 76.1315 72.9247 76.303 72.8537C76.4745 72.7826 76.6304 72.6785 76.7617 72.5472C76.893 72.4159 76.9971 72.2601 77.0682 72.0885C77.1392 71.917 77.1758 71.7331 77.1758 71.5475V48.9363C77.1794 48.7462 77.1446 48.5574 77.0735 48.381C77.0024 48.2047 76.8964 48.0446 76.762 47.9101C76.6276 47.7757 76.4674 47.6698 76.2911 47.5987C76.1148 47.5276 75.9259 47.4928 75.7359 47.4963Z" fill="#303030"/>
<path d="M75.7567 61.6557H96.9593C98.8444 61.6557 98.8444 58.828 96.9593 58.828H75.7567V61.6557Z" fill="#303030"/>
<path d="M86.3371 47.4963C86.1514 47.4997 85.9682 47.5396 85.798 47.6138C85.6277 47.688 85.4737 47.795 85.3449 47.9288C85.216 48.0625 85.1147 48.2203 85.0468 48.3932C84.979 48.566 84.9458 48.7506 84.9493 48.9363V60.2367C84.9493 60.6116 85.0983 60.9713 85.3634 61.2364C85.6286 61.5015 85.9882 61.6505 86.3632 61.6505C86.7382 61.6505 87.0978 61.5015 87.3629 61.2364C87.6281 60.9713 87.777 60.6116 87.777 60.2367V48.9363C87.7806 48.7462 87.7458 48.5574 87.6747 48.381C87.6036 48.2047 87.4977 48.0446 87.3632 47.9101C87.2288 47.7757 87.0686 47.6698 86.8923 47.5987C86.716 47.5276 86.5272 47.4928 86.3371 47.4963ZM68.6926 53.1726C68.3177 53.1726 67.9581 53.3216 67.6929 53.5867C67.4278 53.8519 67.2788 54.2115 67.2788 54.5865C67.2788 54.9614 67.4278 55.3211 67.6929 55.5862C67.9581 55.8514 68.3177 56.0003 68.6926 56.0003H70.1013C70.4763 56.0003 70.8359 55.8514 71.101 55.5862C71.3662 55.3211 71.5151 54.9614 71.5151 54.5865C71.5151 54.2115 71.3662 53.8519 71.101 53.5867C70.8359 53.3216 70.4763 53.1726 70.1013 53.1726H68.6926ZM68.5466 58.828C68.1716 58.8474 67.8197 59.015 67.5683 59.2938C67.3169 59.5727 67.1865 59.9399 67.2059 60.3149C67.2252 60.6899 67.3928 61.0418 67.6716 61.2932C67.9504 61.5447 68.3177 61.6751 68.6926 61.6557H70.1013C70.4763 61.6557 70.8359 61.5068 71.101 61.2416C71.3662 60.9765 71.5151 60.6168 71.5151 60.2419C71.5151 59.8669 71.3662 59.5073 71.101 59.2421C70.8359 58.977 70.4763 58.828 70.1013 58.828H68.6926C68.644 58.8255 68.5952 58.8255 68.5466 58.828H68.5466ZM68.5466 64.4834C68.1716 64.5028 67.8197 64.6704 67.5683 64.9492C67.3169 65.2281 67.1865 65.5954 67.2059 65.9703C67.2252 66.3453 67.3928 66.6972 67.6716 66.9486C67.9504 67.2001 68.3177 67.3305 68.6926 67.3111H70.1013C70.4763 67.3111 70.8359 67.1622 71.101 66.897C71.3662 66.6319 71.5151 66.2723 71.5151 65.8973C71.5151 65.5223 71.3662 65.1627 71.101 64.8975C70.8359 64.6324 70.4763 64.4834 70.1013 64.4834H68.6926C68.644 64.4809 68.5952 64.4809 68.5466 64.4834H68.5466ZM68.5466 43.2809C68.1716 43.3003 67.8197 43.4678 67.5683 43.7467C67.3169 44.0255 67.1865 44.3928 67.2059 44.7678C67.2252 45.1427 67.3928 45.4946 67.6716 45.7461C67.9504 45.9975 68.3177 46.1279 68.6926 46.1086H70.1013C70.287 46.1086 70.4708 46.072 70.6423 46.001C70.8139 45.9299 70.9697 45.8258 71.101 45.6945C71.2323 45.5632 71.3365 45.4073 71.4075 45.2358C71.4786 45.0642 71.5151 44.8804 71.5151 44.6947C71.5151 44.5091 71.4786 44.3252 71.4075 44.1537C71.3365 43.9821 71.2323 43.8263 71.101 43.695C70.9697 43.5637 70.8139 43.4595 70.6423 43.3885C70.4708 43.3174 70.287 43.2809 70.1013 43.2809H68.6926C68.644 43.2784 68.5952 43.2784 68.5466 43.2809H68.5466Z" fill="#303030"/>
<defs>
<filter id="filter0_d_1313_1014" x="0" y="0" width="160" height="160" filterUnits="userSpaceOnUse" color-interpolation-filters="sRGB">
<feFlood flood-opacity="0" result="BackgroundImageFix"/>
<feColorMatrix in="SourceAlpha" type="matrix" values="0 0 0 0 0 0 0 0 0 0 0 0 0 0 0 0 0 0 127 0" result="hardAlpha"/>
<feOffset dy="24"/>
<feGaussianBlur stdDeviation="25"/>
<feComposite in2="hardAlpha" operator="out"/>
<feColorMatrix type="matrix" values="0 0 0 0 0.0509804 0 0 0 0 0.0470588 0 0 0 0 0.219608 0 0 0 0.1 0"/>
<feBlend mode="normal" in2="BackgroundImageFix" result="effect1_dropShadow_1313_1014"/>
<feBlend mode="normal" in="SourceGraphic" in2="effect1_dropShadow_1313_1014" result="shape"/>
</filter>
</defs>
</svg>
