<svg width="24" height="24" viewBox="0 0 24 24" fill="none" xmlns="http://www.w3.org/2000/svg">
<path d="M21.0905 1.34589H2.68175C1.80023 1.34589 1.08575 2.03853 1.08575 2.89341V21.3976C1.08575 22.2525 1.80047 22.9459 2.68175 22.9459H21.0905C21.972 22.9459 22.6855 22.2523 22.6855 21.3976V2.89341C22.6855 2.03877 21.972 1.34589 21.0905 1.34589ZM7.63415 19.4265H4.37063V9.67437H7.63415V19.4265ZM6.00263 8.34213H5.98079C4.88639 8.34213 4.17695 7.59357 4.17695 6.65661C4.17695 5.70069 4.90727 4.97253 6.02327 4.97253C7.13951 4.97253 7.82615 5.70045 7.84775 6.65661C7.84775 7.59381 7.13975 8.34213 6.00263 8.34213ZM19.3985 19.4265H16.1359V14.2089C16.1359 12.8976 15.6631 12.0031 14.4833 12.0031C13.5806 12.0031 13.045 12.6067 12.8098 13.1892C12.7224 13.3975 12.701 13.6884 12.701 13.9792V19.4263H9.43895C9.43895 19.4263 9.48167 10.5888 9.43895 9.67412H12.7013V11.0568C13.1345 10.3924 13.9082 9.44469 15.641 9.44469C17.7883 9.44469 19.3985 10.8376 19.3985 13.8345V19.4265ZM12.6802 11.0877C12.6859 11.0786 12.6936 11.0676 12.7013 11.057V11.0877H12.6802Z" fill="#303030"/>
</svg>
