<svg width="24" height="24" viewBox="0 0 24 24" fill="none" xmlns="http://www.w3.org/2000/svg">
<path d="M23.0625 5.13281C22.2469 5.49375 21.375 5.7375 20.4563 5.85C21.3938 5.2875 22.1156 4.39687 22.4531 3.3375C21.5766 3.85781 20.6063 4.2375 19.5703 4.43906C18.7406 3.55312 17.5594 3 16.2563 3C13.7484 3 11.7188 5.03437 11.7188 7.54219C11.7188 7.89844 11.7563 8.24531 11.8359 8.57812C8.06251 8.39062 4.71564 6.58125 2.4797 3.82969C2.09064 4.5 1.86564 5.28281 1.86564 6.1125C1.86564 7.6875 2.67189 9.07969 3.89064 9.89531C3.14064 9.87656 2.43751 9.67031 1.82814 9.32812V9.38437C1.82814 11.5875 3.39376 13.4203 5.47032 13.8375C5.09064 13.9406 4.68751 13.9969 4.27501 13.9969C3.98439 13.9969 3.69845 13.9687 3.42189 13.9125C3.99845 15.7172 5.67657 17.0297 7.66407 17.0672C6.11251 18.2859 4.15314 19.0125 2.02501 19.0125C1.65939 19.0125 1.29845 18.9891 0.9422 18.9469C2.94376 20.25 5.3297 21 7.88907 21C16.2469 21 20.8125 14.0766 20.8125 8.07187C20.8125 7.875 20.8078 7.67812 20.7985 7.48594C21.6844 6.84375 22.4531 6.04688 23.0625 5.13281Z" fill="#303030"/>
</svg>
