<svg width="60" height="60" viewBox="0 0 60 60" fill="none" xmlns="http://www.w3.org/2000/svg">
<path d="M0 0H52C56.4183 0 60 3.58172 60 8V52C60 56.4183 56.4183 60 52 60H0V0Z" fill="#F38160"/>
<g clip-path="url(#clip0_1124_41)">
<path d="M38.71 37.29L35.31 33.9C36.407 32.5025 37.0022 30.7767 37 29C37 27.4177 36.5308 25.871 35.6518 24.5554C34.7727 23.2398 33.5233 22.2145 32.0615 21.609C30.5997 21.0035 28.9911 20.845 27.4393 21.1537C25.8874 21.4624 24.462 22.2243 23.3431 23.3431C22.2243 24.462 21.4624 25.8874 21.1537 27.4393C20.845 28.9911 21.0035 30.5997 21.609 32.0615C22.2145 33.5233 23.2398 34.7727 24.5554 35.6518C25.871 36.5308 27.4178 37 29 37C30.7767 37.0022 32.5025 36.407 33.9 35.31L37.29 38.71C37.383 38.8037 37.4936 38.8781 37.6154 38.9289C37.7373 38.9797 37.868 39.0058 38 39.0058C38.132 39.0058 38.2627 38.9797 38.3846 38.9289C38.5064 38.8781 38.617 38.8037 38.71 38.71C38.8037 38.617 38.8781 38.5064 38.9289 38.3846C38.9797 38.2627 39.0058 38.132 39.0058 38C39.0058 37.868 38.9797 37.7373 38.9289 37.6154C38.8781 37.4936 38.8037 37.383 38.71 37.29ZM23 29C23 27.8133 23.3519 26.6533 24.0112 25.6666C24.6705 24.6799 25.6075 23.9108 26.7039 23.4567C27.8003 23.0026 29.0067 22.8838 30.1705 23.1153C31.3344 23.3468 32.4035 23.9182 33.2426 24.7574C34.0818 25.5965 34.6532 26.6656 34.8847 27.8295C35.1162 28.9933 34.9974 30.1997 34.5433 31.2961C34.0892 32.3925 33.3201 33.3295 32.3334 33.9888C31.3467 34.6481 30.1867 35 29 35C27.4087 35 25.8826 34.3679 24.7574 33.2426C23.6321 32.1174 23 30.5913 23 29Z" fill="#FAFAFA"/>
</g>
<defs>
<clipPath id="clip0_1124_41">
<rect width="24" height="24" fill="white" transform="translate(18 18)"/>
</clipPath>
</defs>
</svg>
