<svg width="99" height="31" viewBox="0 0 99 31" fill="none" xmlns="http://www.w3.org/2000/svg">
<path d="M0.756 30L6.408 0.839998H12.996L18.612 30H13.104L12.06 23.592H7.452L6.336 30H0.756ZM7.992 19.956H11.484L9.72 8.184L7.992 19.956ZM21.3151 30V9.192H26.7511V12.54C27.4471 11.316 28.1311 10.416 28.8031 9.84C29.4991 9.24 30.3151 8.94 31.2511 8.94C31.4191 8.94 31.5631 8.952 31.6831 8.976C31.8271 8.976 31.9591 9 32.0791 9.048V14.52C31.8151 14.4 31.5151 14.304 31.1791 14.232C30.8431 14.136 30.4951 14.088 30.1351 14.088C29.4631 14.088 28.8511 14.268 28.2991 14.628C27.7471 14.964 27.2311 15.456 26.7511 16.104V30H21.3151ZM41.0833 30.36C39.5473 30.36 38.2633 30.072 37.2313 29.496C36.1993 28.896 35.4193 28.056 34.8913 26.976C34.3873 25.896 34.1353 24.612 34.1353 23.124V16.104C34.1353 14.544 34.3873 13.236 34.8913 12.18C35.4193 11.1 36.1993 10.272 37.2313 9.696C38.2633 9.12 39.5473 8.832 41.0833 8.832C42.5713 8.832 43.8193 9.072 44.8273 9.552C45.8353 10.008 46.5793 10.704 47.0593 11.64C47.5633 12.576 47.8153 13.752 47.8153 15.168V17.148H42.6313V15.024C42.6313 14.4 42.5713 13.92 42.4513 13.584C42.3553 13.224 42.1873 12.972 41.9473 12.828C41.7313 12.684 41.4433 12.612 41.0833 12.612C40.7233 12.612 40.4353 12.708 40.2193 12.9C40.0033 13.068 39.8473 13.368 39.7513 13.8C39.6553 14.208 39.6073 14.784 39.6073 15.528V23.7C39.6073 24.828 39.7273 25.596 39.9673 26.004C40.2313 26.388 40.6153 26.58 41.1193 26.58C41.5033 26.58 41.8033 26.496 42.0193 26.328C42.2353 26.16 42.3913 25.896 42.4873 25.536C42.5833 25.176 42.6313 24.72 42.6313 24.168V21.648H47.8153V23.916C47.8153 25.308 47.5633 26.496 47.0593 27.48C46.5553 28.44 45.7993 29.16 44.7913 29.64C43.7833 30.12 42.5473 30.36 41.0833 30.36Z" fill="#303030"/>
<path d="M55.1253 30.36C54.1413 30.36 53.2893 30.108 52.5693 29.604C51.8733 29.1 51.3453 28.464 50.9853 27.696C50.6253 26.928 50.4453 26.136 50.4453 25.32C50.4453 24.024 50.6973 22.932 51.2013 22.044C51.7053 21.156 52.3653 20.412 53.1813 19.812C53.9973 19.212 54.9093 18.696 55.9173 18.264C56.9253 17.832 57.9333 17.436 58.9413 17.076V15.132C58.9413 14.676 58.9053 14.28 58.8333 13.944C58.7613 13.608 58.6173 13.356 58.4013 13.188C58.2093 12.996 57.9213 12.9 57.5373 12.9C57.1533 12.9 56.8533 12.984 56.6373 13.152C56.4453 13.296 56.3013 13.524 56.2053 13.836C56.1333 14.124 56.0853 14.448 56.0613 14.808L55.9533 16.248L50.8053 16.032C50.9253 13.584 51.5613 11.772 52.7133 10.596C53.8893 9.42 55.6533 8.832 58.0053 8.832C60.1173 8.832 61.6773 9.42 62.6853 10.596C63.6933 11.748 64.1973 13.272 64.1973 15.168V24.852C64.1973 25.668 64.2093 26.4 64.2333 27.048C64.2813 27.672 64.3293 28.236 64.3773 28.74C64.4493 29.22 64.5093 29.64 64.5573 30H59.6613C59.5893 29.472 59.5053 28.896 59.4093 28.272C59.3133 27.648 59.2413 27.228 59.1933 27.012C58.9533 27.876 58.4973 28.656 57.8253 29.352C57.1533 30.024 56.2533 30.36 55.1253 30.36ZM57.1053 26.508C57.3693 26.508 57.6213 26.448 57.8613 26.328C58.1013 26.208 58.3053 26.052 58.4733 25.86C58.6653 25.668 58.8213 25.488 58.9413 25.32V19.596C58.4373 19.908 57.9693 20.22 57.5373 20.532C57.1053 20.82 56.7333 21.144 56.4213 21.504C56.1093 21.864 55.8693 22.26 55.7013 22.692C55.5333 23.124 55.4493 23.616 55.4493 24.168C55.4493 24.888 55.5933 25.464 55.8813 25.896C56.1693 26.304 56.5773 26.508 57.1053 26.508ZM67.7197 30V9.192H73.1557V11.28C73.8997 10.536 74.6797 9.948 75.4957 9.516C76.3357 9.06 77.2237 8.832 78.1597 8.832C79.0237 8.832 79.7197 9.048 80.2477 9.48C80.7997 9.912 81.2077 10.488 81.4717 11.208C81.7357 11.904 81.8677 12.696 81.8677 13.584V30H76.4677V14.484C76.4677 13.908 76.3717 13.476 76.1797 13.188C76.0117 12.9 75.6757 12.756 75.1717 12.756C74.8837 12.756 74.5597 12.84 74.1997 13.008C73.8637 13.152 73.5157 13.356 73.1557 13.62V30H67.7197ZM92.0256 30.36C90.4896 30.36 89.2056 30.084 88.1736 29.532C87.1416 28.956 86.3616 28.128 85.8336 27.048C85.3056 25.944 85.0416 24.624 85.0416 23.088V16.104C85.0416 14.52 85.3056 13.2 85.8336 12.144C86.3616 11.064 87.1536 10.248 88.2096 9.696C89.2656 9.12 90.5376 8.832 92.0256 8.832C93.6096 8.832 94.8936 9.12 95.8776 9.696C96.8616 10.272 97.5816 11.112 98.0376 12.216C98.5176 13.32 98.7576 14.664 98.7576 16.248V19.884H90.4056V23.916C90.4056 24.516 90.4656 25.008 90.5856 25.392C90.7296 25.776 90.9216 26.052 91.1616 26.22C91.4016 26.364 91.7016 26.436 92.0616 26.436C92.3976 26.436 92.6856 26.364 92.9256 26.22C93.1896 26.052 93.3816 25.8 93.5016 25.464C93.6216 25.128 93.6816 24.684 93.6816 24.132V22.152H98.7216V23.88C98.7216 25.992 98.1456 27.6 96.9936 28.704C95.8416 29.808 94.1856 30.36 92.0256 30.36ZM90.4056 17.292H93.6816V15.24C93.6816 14.64 93.6216 14.16 93.5016 13.8C93.3816 13.416 93.1896 13.152 92.9256 13.008C92.6856 12.84 92.3736 12.756 91.9896 12.756C91.6296 12.756 91.3296 12.84 91.0896 13.008C90.8736 13.176 90.7056 13.476 90.5856 13.908C90.4656 14.316 90.4056 14.904 90.4056 15.672V17.292Z" fill="#909090"/>
</svg>
