<svg width="160" height="160" viewBox="0 0 160 160" fill="none" xmlns="http://www.w3.org/2000/svg">
<g filter="url(#filter0_d_1313_1027)">
<rect x="50" y="26" width="60" height="60" fill="#F6F6F6"/>
</g>
<path d="M77.1772 53.1772C74.8395 53.1772 72.4686 54.0654 70.5912 55.536C68.7138 57.0067 67.2722 59.1445 67.2722 61.6523V65.9003C67.2722 70.5757 71.0823 74.3754 75.7577 74.3754H84.2432C88.9186 74.3754 92.7288 70.5757 92.7288 65.9003V61.6523C92.7288 59.1445 91.2871 57.0067 89.4097 55.536C87.5323 54.0654 85.1614 53.1772 82.8238 53.1772C82.4526 53.1775 82.0965 53.3237 81.8322 53.5843L80.0057 55.4212L78.1687 53.5843C77.9044 53.3237 77.5483 53.1775 77.1772 53.1772ZM76.7388 56.1518L79.0037 58.4167C79.2686 58.68 79.627 58.8278 80.0005 58.8278C80.374 58.8278 80.7323 58.68 80.9972 58.4167L83.2621 56.1518C84.7412 56.2615 86.4065 56.7825 87.6667 57.7696C89.0519 58.8547 89.9003 60.2436 89.9003 61.6523V65.9003C89.9003 69.058 87.4009 71.5469 84.2432 71.5469H75.7577C72.6 71.5469 70.1007 69.058 70.1007 65.9003V61.6523C70.1007 60.2436 70.9491 58.8547 72.3343 57.7696C73.5944 56.7825 75.2597 56.2615 76.7388 56.1518ZM79.9952 37.6256C76.498 37.6256 73.6389 40.4847 73.6389 43.9819C73.6389 47.4792 76.498 50.3487 79.9952 50.3487C83.4925 50.3487 86.362 47.4792 86.362 43.9819C86.362 40.4847 83.4925 37.6256 79.9952 37.6256ZM79.9952 40.4437C81.9642 40.4437 83.5335 42.013 83.5335 43.9819C83.5335 45.9509 81.9642 47.5202 79.9952 47.5202C78.0263 47.5202 76.4674 45.9509 76.4674 43.9819C76.4674 42.013 78.0263 40.4437 79.9952 40.4437Z" fill="#303030"/>
<path d="M87.6354 54.5654C87.3822 54.5607 87.1324 54.6241 86.912 54.7489C86.6917 54.8738 86.509 55.0555 86.3829 55.2751L83.951 59.3665L80.9972 56.4128C80.8672 56.2749 80.7108 56.1646 80.5373 56.0884C80.3639 56.0121 80.1768 55.9716 79.9873 55.969C79.7979 55.9665 79.6098 56.0021 79.4344 56.0737C79.2589 56.1452 79.0996 56.2513 78.966 56.3857C78.8324 56.52 78.7271 56.6799 78.6564 56.8557C78.5858 57.0315 78.5512 57.2197 78.5547 57.4092C78.5582 57.5987 78.5998 57.7855 78.6769 57.9586C78.754 58.1316 78.8652 58.2874 79.0037 58.4167L83.2412 62.6543C83.3938 62.8059 83.579 62.9206 83.7827 62.9899C83.9863 63.0591 84.2031 63.081 84.4164 63.0538C84.6298 63.0266 84.8341 62.9511 85.0139 62.8331C85.1937 62.715 85.3442 62.5575 85.454 62.3725L88.8148 56.7259C88.9469 56.5133 89.0203 56.2695 89.0274 56.0192C89.0345 55.769 88.975 55.5214 88.8551 55.3017C88.7351 55.082 88.559 54.8981 88.3447 54.7687C88.1304 54.6393 87.8856 54.5692 87.6354 54.5654Z" fill="#303030"/>
<path d="M72.3238 54.5758C72.0787 54.5878 71.8409 54.6633 71.6338 54.795C71.4267 54.9266 71.2574 55.11 71.1426 55.3269C71.0279 55.5438 70.9715 55.7869 70.9791 56.0322C70.9868 56.2775 71.0581 56.5165 71.1861 56.7259L74.547 62.3725C74.6567 62.5575 74.8072 62.715 74.987 62.8331C75.1668 62.9511 75.3711 63.0266 75.5845 63.0538C75.7978 63.081 76.0146 63.0591 76.2182 62.9899C76.4219 62.9207 76.6071 62.8059 76.7597 62.6543L80.9972 58.4168C81.1357 58.2875 81.2469 58.1317 81.324 57.9586C81.4011 57.7855 81.4427 57.5987 81.4462 57.4092C81.4497 57.2198 81.4151 57.0315 81.3445 56.8557C81.2738 56.6799 81.1685 56.5201 81.0349 56.3857C80.9013 56.2514 80.742 56.1453 80.5665 56.0737C80.3911 56.0021 80.203 55.9665 80.0136 55.9691C79.8241 55.9716 79.6371 56.0122 79.4636 56.0884C79.2901 56.1646 79.1337 56.2749 79.0037 56.4128L76.0499 59.3666L73.618 55.2751C73.4872 55.051 73.2973 54.8673 73.069 54.7439C72.8407 54.6206 72.5829 54.5624 72.3238 54.5758ZM84.2432 64.4808C83.8681 64.4808 83.5084 64.6298 83.2432 64.8951C82.978 65.1603 82.829 65.52 82.829 65.8951C82.829 66.2702 82.978 66.6299 83.2432 66.8951C83.5084 67.1604 83.8681 67.3094 84.2432 67.3094H85.6523C86.0273 67.3094 86.3871 67.1604 86.6523 66.8951C86.9175 66.6299 87.0665 66.2702 87.0665 65.8951C87.0665 65.52 86.9175 65.1603 86.6523 64.8951C86.3871 64.6298 86.0273 64.4808 85.6523 64.4808H84.2432Z" fill="#303030"/>
<defs>
<filter id="filter0_d_1313_1027" x="0" y="0" width="160" height="160" filterUnits="userSpaceOnUse" color-interpolation-filters="sRGB">
<feFlood flood-opacity="0" result="BackgroundImageFix"/>
<feColorMatrix in="SourceAlpha" type="matrix" values="0 0 0 0 0 0 0 0 0 0 0 0 0 0 0 0 0 0 127 0" result="hardAlpha"/>
<feOffset dy="24"/>
<feGaussianBlur stdDeviation="25"/>
<feComposite in2="hardAlpha" operator="out"/>
<feColorMatrix type="matrix" values="0 0 0 0 0.0509804 0 0 0 0 0.0470588 0 0 0 0 0.219608 0 0 0 0.1 0"/>
<feBlend mode="normal" in2="BackgroundImageFix" result="effect1_dropShadow_1313_1027"/>
<feBlend mode="normal" in="SourceGraphic" in2="effect1_dropShadow_1313_1027" result="shape"/>
</filter>
</defs>
</svg>
