<svg width="64" height="64" viewBox="0 0 64 64" fill="none" xmlns="http://www.w3.org/2000/svg">
<path d="M14.7219 19.4882H21.1978C22.994 19.4882 24.44 20.9342 24.44 22.7304V35.6992C24.44 37.4954 22.994 38.9414 21.1978 38.9414H14.7219C12.9258 38.9414 11.4797 37.4954 11.4797 35.6992V22.7304C11.4797 20.9342 12.9258 19.4882 14.7219 19.4882Z" fill="#7EDAD2"/>
<path opacity="0.99" d="M55.7534 8.71039C57.5524 8.71039 59.0007 10.1587 59.0007 11.9577V46.3502C59.0007 48.1492 57.5524 49.5975 55.7534 49.5975C53.9544 49.5975 52.5061 48.1492 52.5061 46.3502V11.9577C52.5061 10.1587 53.9544 8.71039 55.7534 8.71039Z" fill="#7EDAD2"/>
<path d="M55.7565 7.71265C53.4796 7.71265 51.6207 9.52992 51.5279 11.785C46.0592 14.5147 36.638 19.7019 25.2032 21.3848C24.6348 19.7104 23.062 18.4902 21.2011 18.4902H14.7264C12.5902 18.4902 10.8262 20.0937 10.5408 22.1543C6.76731 22.1657 3.99964 25.3948 3.99963 29.217C3.99964 33.0445 6.75308 36.2715 10.5408 36.2738C10.827 38.3343 12.5908 39.9418 14.7264 39.9418H21.2011C21.4219 39.9418 21.6381 39.9202 21.8496 39.8871L25.0411 51.1022C25.425 52.4508 24.6692 53.808 23.3203 54.1921C21.9717 54.576 20.6145 53.8202 20.2304 52.4713L17.3339 42.2934C17.1824 41.763 16.6301 41.4554 16.0995 41.6059C15.5673 41.7565 15.2584 42.3104 15.41 42.8422L18.3085 53.0182C18.9864 55.3992 21.486 56.7919 23.8672 56.114C26.2482 55.4361 27.6409 52.9365 26.963 50.5553L25.6075 45.7915C27.0245 45.4923 28.1418 45.0116 28.9806 44.3638C30.0345 43.5497 30.6299 42.4847 30.8752 41.4379C31.1534 40.2503 31.0262 39.1236 30.7951 38.1683C39.7025 40.4112 46.9949 44.3801 51.5416 46.6489C51.6987 48.844 53.523 50.5943 55.7565 50.5943C58.0922 50.5943 60.0007 48.6858 60.0007 46.3501V24.1524C59.9987 23.6032 59.5539 23.1585 59.0046 23.1563C58.4516 23.1533 58.0009 23.5994 57.9987 24.1524V46.3501C57.9987 47.6124 57.0188 48.5943 55.7565 48.5943C54.4942 48.5943 53.5123 47.6124 53.5123 46.3501V11.9569C53.5123 10.6946 54.4942 9.70489 55.7565 9.70489C57.0188 9.70489 57.9987 10.6946 57.9987 11.9569V20.1504C57.9957 20.7073 58.4477 21.1596 59.0046 21.1563C59.5577 21.1543 60.004 20.7035 60.0007 20.1504V11.9569C60.0007 9.62115 58.0922 7.71265 55.7565 7.71265L55.7565 7.71265ZM51.5084 13.996V44.4302C46.0311 41.6612 36.8811 36.7885 25.4454 35.1077V23.3184C36.8811 21.6376 46.0311 16.765 51.5084 13.996ZM14.7264 20.4844H21.2011C22.4472 20.4844 23.4208 21.4493 23.4414 22.6895V35.7366C23.421 36.9768 22.4472 37.9417 21.2011 37.9417H14.7264C13.4669 37.9417 12.4822 36.957 12.4822 35.6976V22.7286C12.4822 21.4691 13.4669 20.4844 14.7264 20.4844ZM10.4822 24.1427V34.2718C7.90701 34.2464 5.99968 32.066 5.99968 29.217C5.99968 26.354 7.89463 24.1472 10.4822 24.1427ZM25.1973 37.0609C26.3207 37.2262 27.4299 37.4174 28.5157 37.6468C28.8423 38.529 29.197 39.832 28.9279 40.9809C28.7713 41.6493 28.4513 42.2442 27.7579 42.7797C27.1974 43.2127 26.2629 43.5687 25.0469 43.8188C24.598 42.2481 24.1504 40.677 23.7031 39.1058C24.3868 38.5953 24.9138 37.8841 25.1973 37.0609Z" fill="#424241"/>
<path d="M14.9994 28.2125C14.8674 28.212 14.7366 28.2376 14.6146 28.2879C14.4925 28.3382 14.3816 28.4121 14.2883 28.5054C14.195 28.5988 14.1211 28.7096 14.0708 28.8317C14.0205 28.9537 13.9949 29.0845 13.9954 29.2165C13.9959 29.3479 14.0222 29.4778 14.0729 29.599C14.1236 29.7202 14.1977 29.8302 14.2909 29.9228C14.3842 30.0153 14.4947 30.0886 14.6163 30.1384C14.7378 30.1882 14.868 30.2136 14.9994 30.2131H20.9641C21.0954 30.2136 21.2256 30.1882 21.3472 30.1384C21.4687 30.0886 21.5793 30.0153 21.6725 29.9228C21.7658 29.8302 21.8398 29.7202 21.8905 29.599C21.9412 29.4778 21.9676 29.3479 21.968 29.2165C21.9685 29.0845 21.9429 28.9537 21.8927 28.8317C21.8424 28.7096 21.7685 28.5988 21.6751 28.5054C21.5818 28.4121 21.4709 28.3382 21.3489 28.2879C21.2268 28.2376 21.0961 28.212 20.9641 28.2125H14.9994ZM14.9772 23.1928C14.8459 23.1922 14.7157 23.2176 14.5941 23.2674C14.4726 23.3172 14.362 23.3905 14.2688 23.483C14.1756 23.5756 14.1015 23.6856 14.0508 23.8068C14.0001 23.928 13.9737 24.058 13.9733 24.1893C13.9728 24.3213 13.9984 24.4521 14.0486 24.5741C14.0989 24.6962 14.1728 24.8071 14.2662 24.9004C14.3595 24.9937 14.4704 25.0677 14.5924 25.1179C14.7145 25.1682 14.8452 25.1938 14.9772 25.1933H20.9493C21.0807 25.1928 21.2107 25.1665 21.3318 25.1158C21.453 25.0651 21.563 24.991 21.6556 24.8978C21.7481 24.8045 21.8214 24.694 21.8712 24.5724C21.921 24.4509 21.9464 24.3207 21.9459 24.1893C21.945 23.9253 21.8397 23.6723 21.653 23.4856C21.4663 23.2989 21.2133 23.1937 20.9493 23.1928H14.9772ZM14.9772 33.2397C14.8459 33.2392 14.7157 33.2646 14.5941 33.3144C14.4726 33.3642 14.362 33.4374 14.2688 33.53C14.1756 33.6225 14.1015 33.7325 14.0508 33.8537C14.0001 33.9749 13.9737 34.1049 13.9733 34.2363C13.9728 34.3683 13.9984 34.4991 14.0486 34.6211C14.0989 34.7431 14.1728 34.854 14.2662 34.9473C14.3595 35.0407 14.4704 35.1146 14.5924 35.1649C14.7145 35.2151 14.8452 35.2408 14.9772 35.2402H20.9493C21.0807 35.2398 21.2107 35.2135 21.3318 35.1627C21.453 35.112 21.563 35.038 21.6556 34.9447C21.7481 34.8515 21.8214 34.7409 21.8712 34.6194C21.921 34.4978 21.9464 34.3676 21.9459 34.2363C21.945 33.9723 21.8397 33.7193 21.653 33.5326C21.4663 33.3459 21.2133 33.2406 20.9493 33.2397H14.9772Z" fill="#424241"/>
</svg>
