<svg width="64" height="64" viewBox="0 0 64 64" fill="none" xmlns="http://www.w3.org/2000/svg">
<path d="M34.8323 56.3952C34.8323 56.7676 34.759 57.1363 34.6165 57.4804C34.474 57.8244 34.2651 58.137 34.0018 58.4003C33.7385 58.6636 33.4259 58.8725 33.0819 59.015C32.7379 59.1575 32.3691 59.2308 31.9968 59.2308C31.2447 59.2308 30.5235 58.9321 29.9917 58.4003C29.46 57.8685 29.1612 57.1473 29.1612 56.3952C29.1612 55.6432 29.46 54.922 29.9917 54.3902C30.5235 53.8584 31.2447 53.5597 31.9968 53.5597C32.3691 53.5597 32.7379 53.633 33.0819 53.7755C33.4259 53.918 33.7385 54.1269 34.0018 54.3902C34.2651 54.6535 34.474 54.9661 34.6165 55.3101C34.759 55.6541 34.8323 56.0229 34.8323 56.3952ZM38.9139 46.9401L44.5292 57.9735C45.0319 58.9609 46.2313 59.3512 47.2187 58.8485C48.2062 58.3458 48.5965 57.1445 48.0938 56.157L43.4023 46.9401L38.9139 46.9401ZM20.601 46.9401L15.9095 56.157C15.4068 57.1445 15.7971 58.3458 16.7845 58.8485C17.772 59.3512 18.9714 58.9609 19.4741 57.9735L25.0894 46.9401H20.601Z" fill="#7EDAD2"/>
<path d="M7.00114 4.93921H57.0021C58.1101 4.93921 59.0022 5.83123 59.0022 6.93925C59.0022 8.04727 58.1101 8.93929 57.0021 8.93929H7.00114C5.89312 8.93929 5.0011 8.04727 5.0011 6.93925C5.0011 5.83123 5.89312 4.93921 7.00114 4.93921Z" fill="#7EDAD2"/>
<path d="M27.4015 30.667H31.0016V41.0308H27.4015V30.667ZM20.2014 32.667H23.8014V41.0308H20.2014V32.667ZM13.0012 34.6671H16.6013V41.0308H13.0012V34.6671Z" fill="#7EDAD2"/>
<path d="M6.99822 3.94044C5.35349 3.94044 4.00208 5.29185 4.00208 6.93659C4.00208 8.58133 5.35349 9.94056 6.99822 9.94056V22.9389C6.99822 23.4912 7.44595 23.9389 7.99824 23.9389C8.55053 23.9389 8.99826 23.4912 8.99826 22.9389V9.94056H54.9992V45.9354H8.99826V26.9389C8.99826 26.3866 8.55053 25.9389 7.99824 25.9389C7.44595 25.9389 6.99822 26.3866 6.99822 26.9389V45.9354H4.9982C4.86687 45.9359 4.73693 45.9623 4.6158 46.013C4.49467 46.0638 4.38471 46.1378 4.29222 46.2311C4.19972 46.3243 4.12649 46.4348 4.07671 46.5563C4.02693 46.6779 4.00157 46.808 4.00208 46.9393C4.00311 47.2032 4.10839 47.456 4.29497 47.6426C4.48156 47.8291 4.73433 47.9344 4.9982 47.9354H19.018L15.016 55.7032C14.2695 57.1693 14.8619 58.9918 16.3285 59.7384C17.7942 60.4846 19.6156 59.8915 20.3618 58.4259L25.7017 47.9354H30.9968V53.1992C29.6011 53.6355 28.569 54.9324 28.569 56.463C28.569 58.3446 30.121 59.8888 32.0026 59.8888C33.8843 59.8888 35.4265 58.3446 35.4265 56.463C35.4265 54.9302 34.3956 53.6316 32.9987 53.1973V47.9354H38.2957L43.6357 58.4259C44.3818 59.8915 46.2033 60.4846 47.669 59.7384C49.1355 58.9918 49.7279 57.1693 48.9815 55.7032L44.8388 47.9354H58.9973C59.1286 47.936 59.2588 47.9106 59.3803 47.8608C59.5018 47.811 59.6123 47.7378 59.7056 47.6453C59.7988 47.5528 59.8729 47.4429 59.9236 47.3217C59.9743 47.2006 60.0007 47.0707 60.0012 46.9393C60.0017 46.8074 59.9761 46.6766 59.9259 46.5545C59.8756 46.4325 59.8017 46.3216 59.7083 46.2283C59.615 46.135 59.5041 46.061 59.3821 46.0108C59.2601 45.9605 59.1293 45.9349 58.9973 45.9354H56.9992V9.94056C58.6431 9.93946 60.0012 8.58066 60.0012 6.93659C60.0012 5.29185 58.642 3.94044 56.9973 3.94044H48.7666C48.2143 3.93828 47.7649 4.38425 47.7627 4.93655C47.7607 5.4919 48.2113 5.94265 48.7666 5.94048H56.9973C57.5686 5.94048 58.0012 6.36528 58.0012 6.93659C58.0012 7.5079 57.5686 7.94052 56.9973 7.94052H6.99822C6.42692 7.94052 5.9943 7.5079 5.9943 6.93659C5.9943 6.36528 6.42692 5.94048 6.99822 5.94048H44.7646C45.32 5.94266 45.7707 5.4919 45.7685 4.93655C45.7665 4.38425 45.3169 3.93827 44.7646 3.94044H6.99822ZM45.0009 13.8469C41.1467 13.8469 37.9949 16.9908 37.9949 20.8451C37.9949 24.6993 41.1467 27.8491 45.0009 27.8491C48.8552 27.8491 51.9991 24.6993 51.9991 20.8451C51.9991 16.9908 48.8552 13.8469 45.0009 13.8469ZM12.9983 14.9133C12.7265 14.9135 12.4658 15.0217 12.2735 15.2139C12.0813 15.4062 11.9732 15.6668 11.9729 15.9387C11.9732 16.2106 12.0813 16.4713 12.2735 16.6635C12.4658 16.8558 12.7265 16.9639 12.9983 16.9641C13.2702 16.9639 13.5309 16.8558 13.7232 16.6635C13.9154 16.4713 14.0235 16.2106 14.0238 15.9387C14.0235 15.6668 13.9154 15.4062 13.7232 15.2139C13.5309 15.0217 13.2702 14.9135 12.9983 14.9133ZM17.0023 14.9387C16.8708 14.9379 16.7405 14.9631 16.6187 15.0128C16.497 15.0624 16.3862 15.1356 16.2928 15.2282C16.1994 15.3207 16.1251 15.4307 16.0743 15.552C16.0234 15.6732 15.997 15.8033 15.9964 15.9348C15.9959 16.067 16.0216 16.1979 16.072 16.3201C16.1224 16.4422 16.1965 16.5532 16.29 16.6466C16.3836 16.7399 16.4947 16.8138 16.6169 16.8639C16.7392 16.9141 16.8702 16.9395 17.0023 16.9387H34.9988C35.1301 16.9382 35.26 16.9119 35.3812 16.8611C35.5023 16.8104 35.6123 16.7363 35.7048 16.6431C35.7973 16.5499 35.8705 16.4393 35.9203 16.3178C35.9701 16.1963 35.9954 16.0661 35.9949 15.9348C35.9939 15.6709 35.8886 15.4182 35.702 15.2316C35.5154 15.045 35.2627 14.9397 34.9988 14.9387L17.0023 14.9387ZM43.997 15.9465V20.5423L41.4501 24.3744C40.5518 23.4707 39.9969 22.2262 39.9969 20.8451C39.9969 18.4157 41.708 16.4072 43.997 15.9465ZM45.9971 15.9465C47.9663 16.34 49.5053 17.8781 49.8995 19.847H45.9971V15.9465ZM12.9983 19.9134C12.7265 19.9137 12.4658 20.0218 12.2735 20.214C12.0813 20.4063 11.9732 20.6669 11.9729 20.9388C11.9732 21.2107 12.0813 21.4714 12.2735 21.6636C12.4658 21.8559 12.7265 21.964 12.9983 21.9642C13.2702 21.964 13.5309 21.8559 13.7232 21.6636C13.9154 21.4714 14.0235 21.2107 14.0238 20.9388C14.0235 20.6669 13.9154 20.4063 13.7232 20.214C13.5309 20.0218 13.2702 19.9137 12.9983 19.9134ZM17.0023 19.9368C16.8702 19.9361 16.7392 19.9615 16.6169 20.0117C16.4947 20.0618 16.3836 20.1357 16.29 20.229C16.1965 20.3224 16.1224 20.4334 16.072 20.5555C16.0216 20.6777 15.9959 20.8086 15.9964 20.9408C15.997 21.0723 16.0234 21.2024 16.0743 21.3236C16.1251 21.4449 16.1994 21.5549 16.2928 21.6474C16.3862 21.74 16.497 21.8132 16.6187 21.8628C16.7405 21.9125 16.8708 21.9377 17.0023 21.9369H26.9967C27.128 21.9374 27.2581 21.912 27.3797 21.8623C27.5012 21.8125 27.6117 21.7392 27.7049 21.6468C27.7982 21.5543 27.8722 21.4443 27.923 21.3232C27.9737 21.202 28.0001 21.0721 28.0006 20.9408C28.0011 20.8088 27.9755 20.678 27.9252 20.556C27.875 20.4339 27.801 20.3231 27.7077 20.2297C27.6144 20.1364 27.5035 20.0625 27.3815 20.0122C27.2594 19.9619 27.1287 19.9363 26.9967 19.9368L17.0023 19.9368ZM45.5341 21.849H49.8975C49.436 24.1369 47.4296 25.8491 45.0009 25.8491C44.3313 25.8491 43.6968 25.7124 43.1142 25.476L45.5341 21.849ZM12.9983 24.9135C12.7265 24.9137 12.4658 25.0219 12.2735 25.2141C12.0813 25.4064 11.9732 25.667 11.9729 25.9389C11.9732 26.2108 12.0813 26.4715 12.2735 26.6637C12.4658 26.856 12.7265 26.9641 12.9983 26.9643C13.2702 26.9641 13.5309 26.856 13.7232 26.6637C13.9154 26.4715 14.0235 26.2108 14.0238 25.9389C14.0235 25.667 13.9154 25.4064 13.7232 25.2141C13.5309 25.0219 13.2702 24.9137 12.9983 24.9135ZM17.0023 24.9408C16.8708 24.9401 16.7405 24.9652 16.6187 25.0149C16.497 25.0646 16.3862 25.1378 16.2928 25.2303C16.1994 25.3228 16.1251 25.4328 16.0743 25.5541C16.0234 25.6754 15.997 25.8055 15.9964 25.9369C15.9957 26.0693 16.0212 26.2004 16.0714 26.3228C16.1217 26.4452 16.1958 26.5564 16.2893 26.6499C16.3829 26.7435 16.4941 26.8176 16.6165 26.8678C16.7389 26.9181 16.87 26.9436 17.0023 26.9428H34.9988C35.1303 26.9423 35.2604 26.9159 35.3816 26.865C35.5029 26.8142 35.6129 26.7399 35.7054 26.6465C35.798 26.5531 35.8712 26.4423 35.9208 26.3205C35.9705 26.1988 35.9957 26.0685 35.9949 25.937C35.9939 25.6731 35.8886 25.4203 35.702 25.2337C35.5154 25.0472 35.2627 24.9419 34.9988 24.9409L17.0023 24.9408ZM27.3951 29.6655C27.1299 29.6666 26.876 29.773 26.6892 29.9612C26.5024 30.1495 26.398 30.4042 26.399 30.6695V41.0271C26.398 41.2923 26.5024 41.5471 26.6892 41.7353C26.876 41.9236 27.1299 42.03 27.3951 42.031H30.9968C31.1289 42.0318 31.2599 42.0063 31.3821 41.9562C31.5044 41.906 31.6155 41.8321 31.709 41.7388C31.8026 41.6454 31.8767 41.5345 31.9271 41.4123C31.9774 41.2902 32.0031 41.1592 32.0026 41.0271V30.6695C32.0031 30.5373 31.9774 30.4064 31.9271 30.2842C31.8767 30.1621 31.8026 30.0511 31.709 29.9578C31.6155 29.8644 31.5044 29.7905 31.3821 29.7404C31.2599 29.6902 31.1289 29.6648 30.9968 29.6656L27.3951 29.6655ZM36.9988 29.9136C36.7269 29.9138 36.4663 30.0219 36.274 30.2142C36.0818 30.4064 35.9736 30.6671 35.9734 30.939C35.9736 31.2109 36.0818 31.4716 36.274 31.6638C36.4663 31.8561 36.7269 31.9642 36.9988 31.9644C37.2707 31.9642 37.5314 31.8561 37.7236 31.6638C37.9159 31.4716 38.024 31.2109 38.0242 30.939C38.024 30.6671 37.9159 30.4064 37.7236 30.2142C37.5314 30.0219 37.2707 29.9138 36.9988 29.9136ZM41.0009 29.939C40.8695 29.9385 40.7394 29.9638 40.6179 30.0136C40.4963 30.0634 40.3858 30.1366 40.2926 30.2291C40.1994 30.3216 40.1253 30.4316 40.0745 30.5527C40.0238 30.6738 39.9974 30.8038 39.9969 30.9351C39.9964 31.0671 40.022 31.1979 40.0723 31.3199C40.1226 31.4419 40.1965 31.5528 40.2898 31.6461C40.3831 31.7395 40.494 31.8134 40.6161 31.8637C40.7381 31.9139 40.8689 31.9395 41.0009 31.939H45.0009C45.1323 31.9385 45.2622 31.9121 45.3833 31.8614C45.5045 31.8107 45.6144 31.7366 45.7069 31.6434C45.7994 31.5502 45.8726 31.4396 45.9224 31.3181C45.9722 31.1966 45.9976 31.0664 45.9971 30.9351C45.996 30.6712 45.8907 30.4185 45.7042 30.2319C45.5176 30.0453 45.2648 29.94 45.0009 29.939L41.0009 29.939ZM20.1977 31.6656C19.9335 31.6667 19.6805 31.7722 19.4938 31.9592C19.3072 32.1462 19.2021 32.3995 19.2016 32.6637V41.0271C19.2006 41.2923 19.305 41.5471 19.4918 41.7353C19.6786 41.9236 19.9325 42.03 20.1977 42.031H23.7993C23.9308 42.0308 24.061 42.0046 24.1823 41.954C24.3037 41.9033 24.4138 41.8293 24.5065 41.736C24.5993 41.6428 24.6727 41.5322 24.7226 41.4105C24.7725 41.2889 24.7979 41.1586 24.7974 41.0271V32.6637C24.7969 32.3991 24.6915 32.1456 24.5045 31.9585C24.3174 31.7715 24.0639 31.6661 23.7993 31.6656H20.1977ZM28.399 31.6656H30.0006V40.031H28.399V31.6656ZM13.0003 33.6676C12.7351 33.6666 12.4803 33.771 12.2921 33.9578C12.1038 34.1446 11.9974 34.3985 11.9964 34.6637V41.0271C11.9959 41.1591 12.0215 41.2899 12.0718 41.4119C12.122 41.5339 12.196 41.6448 12.2893 41.7381C12.3826 41.8314 12.4935 41.9054 12.6155 41.9556C12.7375 42.0059 12.8683 42.0315 13.0003 42.031H16.5961C16.7281 42.0315 16.8588 42.0059 16.9809 41.9556C17.1029 41.9054 17.2138 41.8314 17.3071 41.7381C17.4004 41.6448 17.4743 41.5339 17.5246 41.4119C17.5749 41.2899 17.6005 41.1591 17.6 41.0271V34.6637C17.5989 34.3985 17.4926 34.1446 17.3043 33.9578C17.116 33.771 16.8613 33.6666 16.5961 33.6676H13.0003ZM21.2016 33.6676H22.7954V40.031H21.2016V33.6676ZM36.9988 34.9137C36.7269 34.9139 36.4663 35.0221 36.274 35.2143C36.0818 35.4066 35.9736 35.6672 35.9734 35.9391C35.9736 36.211 36.0818 36.4717 36.274 36.6639C36.4663 36.8562 36.7269 36.9643 36.9988 36.9645C37.2707 36.9643 37.5314 36.8562 37.7236 36.6639C37.9159 36.4717 38.024 36.211 38.0242 35.9391C38.024 35.6672 37.9159 35.4066 37.7236 35.2143C37.5314 35.022 37.2707 34.9139 36.9988 34.9137ZM41.0009 34.9371C40.8689 34.9366 40.7381 34.9622 40.6161 35.0125C40.494 35.0628 40.3831 35.1367 40.2898 35.23C40.1965 35.3234 40.1226 35.4342 40.0723 35.5563C40.022 35.6783 39.9964 35.8091 39.9969 35.9411C39.9974 36.0724 40.0238 36.2023 40.0745 36.3235C40.1253 36.4446 40.1994 36.5546 40.2926 36.647C40.3858 36.7395 40.4963 36.8128 40.6179 36.8626C40.7394 36.9123 40.8695 36.9377 41.0009 36.9372H50.9952C51.1265 36.9377 51.2567 36.9123 51.3782 36.8626C51.4997 36.8128 51.6102 36.7396 51.7035 36.6471C51.7967 36.5546 51.8708 36.4446 51.9215 36.3235C51.9722 36.2023 51.9986 36.0724 51.9991 35.9411C51.9996 35.8091 51.974 35.6783 51.9237 35.5563C51.8735 35.4342 51.7995 35.3234 51.7062 35.23C51.6129 35.1367 51.502 35.0628 51.38 35.0125C51.2579 34.9622 51.1272 34.9366 50.9952 34.9371L41.0009 34.9371ZM13.9964 35.6676H15.598V40.031H13.9964V35.6676ZM36.9988 39.9138C36.7269 39.914 36.4663 40.0221 36.274 40.2144C36.0818 40.4066 35.9736 40.6673 35.9734 40.9392C35.9736 41.2111 36.0818 41.4718 36.274 41.664C36.4663 41.8563 36.7269 41.9644 36.9988 41.9646C37.2707 41.9644 37.5314 41.8563 37.7236 41.664C37.9159 41.4718 38.024 41.2111 38.0242 40.9392C38.024 40.6673 37.9159 40.4066 37.7236 40.2144C37.5314 40.0221 37.2707 39.914 36.9988 39.9138ZM41.0009 39.941C40.8695 39.9405 40.7394 39.9659 40.6179 40.0156C40.4963 40.0654 40.3858 40.1386 40.2926 40.2311C40.1994 40.3236 40.1253 40.4336 40.0745 40.5547C40.0238 40.6759 39.9974 40.8058 39.9969 40.9371C39.9962 41.0693 40.0216 41.2003 40.0717 41.3225C40.1219 41.4448 40.1958 41.5559 40.2891 41.6494C40.3825 41.743 40.4934 41.8171 40.6156 41.8675C40.7378 41.9178 40.8687 41.9435 41.0009 41.943H45.0009C45.1324 41.9425 45.2625 41.9161 45.3838 41.8652C45.505 41.8144 45.6151 41.7401 45.7076 41.6467C45.8001 41.5532 45.8733 41.4425 45.923 41.3207C45.9727 41.199 45.9978 41.0686 45.9971 40.9371C45.996 40.6733 45.8907 40.4205 45.7042 40.2339C45.5176 40.0473 45.2648 39.942 45.0009 39.941H41.0009ZM21.2094 47.9392H23.4556L18.5805 57.5195C18.3212 58.0287 17.7439 58.2162 17.2348 57.957C16.7264 57.6982 16.5383 57.118 16.7973 56.6093L21.2094 47.9392ZM40.5419 47.9392H42.786L47.2002 56.6093C47.4592 57.118 47.271 57.6982 46.7627 57.957C46.2535 58.2162 45.6762 58.0287 45.417 57.5195L40.5419 47.9392ZM32.0026 55.0312C32.8034 55.0312 33.4265 55.6621 33.4265 56.4628C33.4265 57.2635 32.8034 57.8867 32.0026 57.8867C31.2019 57.8867 30.569 57.2635 30.569 56.4628C30.569 55.6621 31.2019 55.0312 32.0026 55.0312Z" fill="#424241"/>
</svg>
