<svg width="64" height="64" viewBox="0 0 64 64" fill="none" xmlns="http://www.w3.org/2000/svg">
<path opacity="0.99" d="M47.0351 28.0103C52.2456 28.0103 56.4542 32.4636 56.4542 37.4293V44.7503H37.6099V37.4293C37.6099 32.4636 41.8247 28.0103 47.0351 28.0103ZM43.5232 50.9312H50.5429C50.1184 52.8728 48.7508 54.3143 47.0331 54.3144C45.3153 54.3143 43.9477 52.8728 43.5232 50.9312Z" fill="#7EDAD2"/>
<path d="M11.8562 11.4307H15.3816C15.8921 11.4307 16.303 11.8416 16.303 12.3521V15.5678C16.303 16.0782 15.8921 16.4892 15.3816 16.4892H11.8562C11.3457 16.4892 10.9348 16.0782 10.9348 15.5678V12.3521C10.9348 11.8416 11.3457 11.4307 11.8562 11.4307ZM11.8562 23.4018H15.3816C15.8921 23.4018 16.303 23.8127 16.303 24.3231V27.5389C16.303 28.0493 15.8921 28.4602 15.3816 28.4602H11.8562C11.3457 28.4602 10.9348 28.0493 10.9348 27.5389V24.3231C10.9348 23.8127 11.3457 23.4018 11.8562 23.4018ZM11.8562 36.047H15.3816C15.8921 36.047 16.303 36.4579 16.303 36.9683V40.184C16.303 40.6945 15.8921 41.1054 15.3816 41.1054H11.8562C11.3457 41.1054 10.9348 40.6945 10.9348 40.184V36.9683C10.9348 36.4579 11.3457 36.047 11.8562 36.047ZM11.8562 47.9139H15.3816C15.8921 47.9139 16.303 48.3248 16.303 48.8352V52.051C16.303 52.5614 15.8921 52.9723 15.3816 52.9723H11.8562C11.3457 52.9723 10.9348 52.5614 10.9348 52.051V48.8352C10.9348 48.3248 11.3457 47.9139 11.8562 47.9139Z" fill="#7EDAD2"/>
<path opacity="0.99" d="M7.05182 3.99872C5.41729 3.99872 4.05176 5.32713 4.05176 6.96166V57.0369C4.05176 58.6714 5.41729 59.9998 7.05182 59.9998H46.1151C47.4013 59.9998 47.4526 57.9998 46.035 57.9998H7.05182C6.4703 57.9998 6.0518 57.5781 6.0518 57.0369V6.96166C6.0518 6.42044 6.4703 5.99875 7.05182 5.99875H36.9958V11.6571C36.9958 13.7696 38.7231 15.495 40.8357 15.495H46.1073L46.0975 19.1728C46.0975 20.5311 48.0975 20.5307 48.0975 19.1766L48.1111 14.3289C48.1116 14.0668 48.0092 13.815 47.8259 13.6277L38.7086 4.29938C38.5205 4.10703 38.2628 3.99863 37.9937 3.9986L7.05182 3.99872ZM38.99 7.44996L44.8983 13.495H40.8357C39.7966 13.495 38.99 12.6962 38.99 11.6571V7.44996ZM11.0773 10.4461C10.9458 10.4456 10.8155 10.471 10.6939 10.5209C10.5722 10.5709 10.4616 10.6443 10.3684 10.737C10.2751 10.8297 10.2011 10.9398 10.1504 11.0612C10.0998 11.1825 10.0736 11.3127 10.0734 11.4442V16.4931C10.0729 16.6251 10.0985 16.7559 10.1488 16.8779C10.199 16.9999 10.273 17.1108 10.3663 17.2041C10.4596 17.2974 10.5705 17.3714 10.6925 17.4216C10.8145 17.4719 10.9453 17.4975 11.0773 17.497H16.1282C16.2601 17.4975 16.3909 17.4719 16.513 17.4216C16.635 17.3714 16.7458 17.2974 16.8392 17.2041C16.9325 17.1108 17.0064 16.9999 17.0567 16.8779C17.107 16.7559 17.1326 16.6251 17.1321 16.4931V11.4442C17.1318 11.3127 17.1056 11.1825 17.055 11.0612C17.0044 10.9398 16.9303 10.8297 16.8371 10.737C16.7439 10.6443 16.6332 10.5709 16.5116 10.5209C16.3899 10.471 16.2597 10.4456 16.1282 10.4461H11.0773ZM21.5384 10.5575C21.2746 10.5585 21.0218 10.6638 20.8352 10.8503C20.6486 11.0369 20.5433 11.2897 20.5423 11.5536C20.5433 11.8174 20.6486 12.0702 20.8352 12.2568C21.0218 12.4434 21.2746 12.5487 21.5384 12.5497H26.0483C26.1796 12.5502 26.3097 12.5248 26.4313 12.4751C26.5528 12.4253 26.6633 12.352 26.7566 12.2595C26.8498 12.167 26.9239 12.0571 26.9746 11.936C27.0253 11.8148 27.0517 11.6849 27.0522 11.5536C27.0517 11.4222 27.0253 11.2923 26.9746 11.1712C26.9239 11.05 26.8498 10.9401 26.7566 10.8476C26.6633 10.7551 26.5528 10.6819 26.4313 10.6321C26.3097 10.5823 26.1796 10.5569 26.0483 10.5575H21.5384ZM12.0754 12.4481H15.1301V15.4951H12.0754V12.4481ZM21.5384 15.3857C21.4071 15.3862 21.2772 15.4126 21.156 15.4633C21.0349 15.514 20.9249 15.5881 20.8325 15.6813C20.74 15.7746 20.6667 15.8851 20.6169 16.0066C20.5672 16.1281 20.5418 16.2583 20.5423 16.3896C20.5433 16.6535 20.6486 16.9062 20.8352 17.0928C21.0218 17.2794 21.2746 17.3847 21.5384 17.3857H31.0542C31.3181 17.3847 31.5709 17.2794 31.7575 17.0928C31.9441 16.9062 32.0493 16.6535 32.0504 16.3896C32.0509 16.2583 32.0255 16.1281 31.9757 16.0066C31.926 15.8851 31.8527 15.7746 31.7602 15.6813C31.6677 15.5881 31.5578 15.514 31.4366 15.4633C31.3155 15.4126 31.1856 15.3862 31.0542 15.3857H21.5384ZM47.035 22.2217C45.3911 22.2217 44.0389 23.5817 44.0389 25.2257V26.8058C39.396 28.1526 36.0153 32.5109 36.0153 37.3842V44.7534C34.8856 45.3267 34.109 46.5212 34.109 47.8805V50.3844C34.111 50.9344 34.5571 51.3794 35.1071 51.3805H41.7673C42.1824 53.9129 44.3879 55.863 47.0331 55.863C49.6783 55.863 51.8838 53.913 52.2988 51.3805H58.9571C59.5071 51.3794 59.953 50.9344 59.9552 50.3844V47.8804C59.9552 46.5212 59.1786 45.3267 58.0489 44.7534V37.3841C58.0489 32.5087 54.6698 28.1484 50.0253 26.8039V25.2257C50.0253 23.5816 48.679 22.2217 47.035 22.2217V22.2217ZM11.0773 22.3311C10.9453 22.3306 10.8145 22.3563 10.6925 22.4065C10.5705 22.4568 10.4596 22.5307 10.3663 22.6241C10.273 22.7174 10.199 22.8282 10.1488 22.9503C10.0985 23.0723 10.0729 23.2031 10.0734 23.3351V28.3859C10.0729 28.5179 10.0985 28.6487 10.1488 28.7707C10.199 28.8927 10.273 29.0036 10.3663 29.0969C10.4596 29.1903 10.5705 29.2642 10.6925 29.3145C10.8145 29.3647 10.9453 29.3904 11.0773 29.3899H16.1282C16.2601 29.3904 16.3909 29.3647 16.513 29.3145C16.635 29.2642 16.7458 29.1903 16.8392 29.0969C16.9325 29.0036 17.0064 28.8927 17.0567 28.7707C17.107 28.6487 17.1326 28.5179 17.1321 28.3859V23.3351C17.1326 23.2031 17.107 23.0723 17.0567 22.9503C17.0064 22.8282 16.9325 22.7174 16.8392 22.6241C16.7458 22.5307 16.635 22.4568 16.513 22.4065C16.3909 22.3563 16.2601 22.3306 16.1282 22.3311H11.0773ZM21.5384 22.4425C21.4071 22.443 21.2772 22.4694 21.156 22.5201C21.0349 22.5708 20.9249 22.6449 20.8325 22.7381C20.74 22.8314 20.6667 22.9419 20.6169 23.0634C20.5672 23.1849 20.5418 23.3151 20.5423 23.4464C20.5433 23.7103 20.6486 23.963 20.8352 24.1496C21.0218 24.3362 21.2746 24.4415 21.5384 24.4425H26.0483C26.1796 24.443 26.3097 24.4177 26.4313 24.3679C26.5528 24.3181 26.6633 24.2449 26.7566 24.1524C26.8498 24.0599 26.9239 23.9499 26.9746 23.8288C27.0253 23.7077 27.0517 23.5777 27.0522 23.4464C27.0527 23.3144 27.0271 23.1836 26.9768 23.0616C26.9266 22.9396 26.8526 22.8287 26.7593 22.7354C26.666 22.642 26.5551 22.5681 26.4331 22.5178C26.311 22.4676 26.1803 22.442 26.0483 22.4425H21.5384ZM47.035 24.2218C47.6029 24.2218 48.0331 24.6522 48.0331 25.2257V26.4211C47.7044 26.3905 47.3717 26.3703 47.035 26.3703C46.6984 26.3703 46.3676 26.3907 46.0389 26.4211V25.2257C46.0389 24.6522 46.4672 24.2218 47.035 24.2218ZM12.0754 24.3332H15.1301V27.3879H12.0754V24.3332ZM21.5384 27.2785C21.2746 27.2796 21.0218 27.3848 20.8352 27.5714C20.6486 27.758 20.5433 28.0108 20.5423 28.2746C20.5418 28.406 20.5672 28.5361 20.6169 28.6576C20.6667 28.7792 20.74 28.8897 20.8325 28.9829C20.9249 29.0761 21.0349 29.1502 21.156 29.201C21.2772 29.2517 21.4071 29.2781 21.5384 29.2786H31.0542C31.1856 29.2781 31.3155 29.2517 31.4366 29.201C31.5578 29.1502 31.6677 29.0761 31.7602 28.9829C31.8527 28.8897 31.926 28.7792 31.9757 28.6576C32.0255 28.5361 32.0509 28.406 32.0504 28.2746C32.0493 28.0108 31.9441 27.758 31.7575 27.5714C31.5709 27.3848 31.3181 27.2796 31.0542 27.2785H21.5384ZM47.035 28.3703C52.0213 28.3703 56.0489 32.6321 56.0489 37.3842V44.3902H38.0153V37.3842C38.0153 32.6321 42.0487 28.3703 47.035 28.3703ZM11.0773 34.9916C10.8121 34.9906 10.5573 35.0949 10.3691 35.2817C10.1808 35.4685 10.0744 35.7225 10.0734 35.9877V41.0444C10.0736 41.1759 10.0998 41.3061 10.1504 41.4274C10.2011 41.5488 10.2751 41.6589 10.3684 41.7516C10.4616 41.8443 10.5722 41.9178 10.6939 41.9677C10.8155 42.0176 10.9458 42.043 11.0773 42.0425H16.1282C16.2597 42.043 16.3899 42.0176 16.5116 41.9677C16.6332 41.9178 16.7439 41.8443 16.8371 41.7516C16.9303 41.6589 17.0044 41.5488 17.055 41.4274C17.1056 41.3061 17.1318 41.1759 17.1321 41.0444V35.9877C17.131 35.7225 17.0247 35.4685 16.8364 35.2817C16.6481 35.0949 16.3934 34.9906 16.1282 34.9916H11.0773ZM21.5384 35.1029C21.2746 35.1039 21.0218 35.2092 20.8352 35.3958C20.6486 35.5824 20.5433 35.8352 20.5423 36.099C20.5418 36.2304 20.5672 36.3605 20.6169 36.482C20.6667 36.6036 20.74 36.7141 20.8325 36.8073C20.9249 36.9005 21.0349 36.9746 21.156 37.0253C21.2772 37.0761 21.4071 37.1025 21.5384 37.103H29.0542C29.1855 37.1025 29.3155 37.0761 29.4366 37.0253C29.5577 36.9746 29.6677 36.9005 29.7602 36.8073C29.8527 36.7141 29.9259 36.6035 29.9757 36.482C30.0255 36.3605 30.0508 36.2304 30.0503 36.099C30.0493 35.8352 29.944 35.5824 29.7574 35.3958C29.5708 35.2092 29.3181 35.1039 29.0542 35.1029H21.5384ZM12.0754 36.9916H15.1301V40.0405H12.0754V36.9916ZM21.5384 39.9311C21.4071 39.9317 21.2772 39.958 21.156 40.0088C21.0349 40.0595 20.9249 40.1336 20.8325 40.2268C20.74 40.32 20.6667 40.4305 20.6169 40.5521C20.5672 40.6736 20.5418 40.8037 20.5423 40.9351C20.5433 41.1989 20.6486 41.4517 20.8352 41.6383C21.0218 41.8249 21.2746 41.9302 21.5384 41.9312H25.5385C25.6698 41.9317 25.8 41.9063 25.9215 41.8566C26.043 41.8068 26.1536 41.7335 26.2468 41.641C26.34 41.5485 26.4141 41.4386 26.4648 41.3175C26.5156 41.1963 26.5419 41.0664 26.5424 40.9351C26.5429 40.8031 26.5173 40.6723 26.4671 40.5503C26.4168 40.4282 26.3429 40.3174 26.2495 40.224C26.1562 40.1307 26.0453 40.0568 25.9233 40.0065C25.8013 39.9562 25.6705 39.9306 25.5385 39.9311H21.5384ZM37.4919 46.3903H56.5743C57.3334 46.3903 57.9532 47.0096 57.9532 47.8805V49.3805H36.111V47.8805C36.111 47.0096 36.7328 46.3903 37.4919 46.3903ZM11.0773 46.5016C10.9453 46.5011 10.8145 46.5267 10.6925 46.577C10.5705 46.6273 10.4596 46.7012 10.3663 46.7945C10.273 46.8878 10.199 46.9987 10.1488 47.1207C10.0985 47.2428 10.0729 47.3735 10.0734 47.5055V52.5544C10.0729 52.6864 10.0985 52.8172 10.1488 52.9392C10.199 53.0612 10.273 53.1721 10.3663 53.2654C10.4596 53.3588 10.5705 53.4327 10.6925 53.483C10.8145 53.5332 10.9453 53.5589 11.0773 53.5584H16.1282C16.2601 53.5589 16.3909 53.5332 16.513 53.483C16.635 53.4327 16.7458 53.3588 16.8392 53.2654C16.9325 53.1721 17.0064 53.0612 17.0567 52.9392C17.107 52.8172 17.1326 52.6864 17.1321 52.5544V47.5055C17.1326 47.3735 17.107 47.2428 17.0567 47.1207C17.0064 46.9987 16.9325 46.8878 16.8392 46.7945C16.7458 46.7012 16.635 46.6273 16.513 46.577C16.3909 46.5267 16.2601 46.5011 16.1282 46.5016H11.0773ZM21.5384 46.611C21.4071 46.6115 21.2772 46.6378 21.156 46.6886C21.0349 46.7393 20.9249 46.8134 20.8325 46.9066C20.74 46.9998 20.6667 47.1104 20.6169 47.2319C20.5672 47.3534 20.5418 47.4836 20.5423 47.6149C20.5433 47.8788 20.6486 48.1315 20.8352 48.3181C21.0218 48.5047 21.2746 48.61 21.5384 48.611H29.0542C29.3181 48.61 29.5709 48.5047 29.7575 48.3181C29.944 48.1315 30.0493 47.8787 30.0503 47.6148C30.0508 47.4835 30.0255 47.3533 29.9757 47.2318C29.9259 47.1103 29.8527 46.9998 29.7602 46.9065C29.6677 46.8133 29.5577 46.7392 29.4366 46.6885C29.3155 46.6378 29.1855 46.6114 29.0542 46.6109L21.5384 46.611ZM12.0754 48.5016H15.1301V51.5564H12.0754V48.5016ZM43.8631 51.3825H50.2031C49.8197 52.8061 48.5845 53.863 47.0331 53.8631C45.4816 53.863 44.2465 52.8061 43.8631 51.3825ZM21.5384 51.447C21.2746 51.448 21.0218 51.5533 20.8352 51.7399C20.6486 51.9265 20.5433 52.1792 20.5423 52.4431C20.5418 52.5744 20.5672 52.7046 20.6169 52.8261C20.6667 52.9476 20.74 53.0582 20.8325 53.1514C20.9249 53.2446 21.0349 53.3187 21.156 53.3694C21.2772 53.4201 21.4071 53.4465 21.5384 53.447H25.5385C25.6705 53.4475 25.8013 53.4219 25.9233 53.3717C26.0453 53.3214 26.1562 53.2475 26.2495 53.1541C26.3429 53.0608 26.4168 52.9499 26.4671 52.8279C26.5173 52.7059 26.5429 52.5751 26.5424 52.4431C26.5419 52.3118 26.5156 52.1818 26.4648 52.0607C26.4141 51.9396 26.34 51.8296 26.2468 51.7371C26.1536 51.6446 26.043 51.5714 25.9215 51.5216C25.8 51.4718 25.6698 51.4465 25.5385 51.447H21.5384Z" fill="#424241"/>
</svg>
