<svg width="48" height="48" viewBox="0 0 48 48" fill="none" xmlns="http://www.w3.org/2000/svg">
<circle cx="24" cy="24" r="24" fill="white"/>
<path d="M18.3323 20H29.6713C29.9596 20 30.2446 20.0623 30.5066 20.1827C30.7687 20.3031 31.0015 20.4788 31.1893 20.6976C31.3771 20.9164 31.5153 21.1733 31.5946 21.4506C31.6738 21.7279 31.6921 22.019 31.6483 22.304L30.3933 30.456C30.2843 31.1644 29.9253 31.8105 29.3813 32.2771C28.8372 32.7438 28.144 33.0002 27.4273 33H20.5753C19.8587 33 19.1658 32.7434 18.6219 32.2768C18.078 31.8102 17.7192 31.1643 17.6103 30.456L16.3553 22.304C16.3114 22.019 16.3298 21.7279 16.409 21.4506C16.4882 21.1733 16.6264 20.9164 16.8142 20.6976C17.002 20.4788 17.2349 20.3031 17.4969 20.1827C17.7589 20.0623 18.0439 20 18.3323 20Z" stroke="#1A1A1A" stroke-width="1.5" stroke-linecap="round" stroke-linejoin="round"/>
<path d="M21 23V18C21 17.2044 21.3161 16.4413 21.8787 15.8787C22.4413 15.3161 23.2044 15 24 15C24.7956 15 25.5587 15.3161 26.1213 15.8787C26.6839 16.4413 27 17.2044 27 18V23" stroke="#1A1A1A" stroke-width="1.5" stroke-linecap="round" stroke-linejoin="round"/>
</svg>
