<svg width="45" height="42" viewBox="0 0 45 42" fill="none" xmlns="http://www.w3.org/2000/svg">
<path d="M9.38361 19.7549C8.90321 19.7785 8.42282 19.8032 7.94242 19.8288C7.85882 19.8338 7.78058 19.8225 7.7101 19.797C7.69369 19.8084 7.67663 19.8189 7.65896 19.8286L7.61715 19.7524L7.65896 19.8286C7.52463 19.9023 7.36652 19.9196 7.21944 19.8767L7.21123 19.8743L7.21128 19.8741C7.06972 19.827 6.9512 19.7281 6.87946 19.5972C6.80984 19.4703 6.78925 19.3223 6.82131 19.1814C7.06334 17.4844 7.10489 15.7648 6.94508 14.0581M9.38361 19.7549L10.2979 36.3864C18.9412 35.5889 27.636 35.5138 36.2918 36.1618C36.2975 36.1623 36.3031 36.1625 36.3087 36.1625C36.622 36.1625 36.8143 35.9496 36.8608 35.7144C36.8977 35.5272 36.8461 35.3046 36.6856 35.1574C35.7831 30.0231 35.1743 24.8414 34.8623 19.6376C34.8613 19.5541 34.844 19.4776 34.8134 19.4098C35.6893 19.4292 36.5651 19.4518 37.4409 19.4777L37.4409 19.4778H37.4475C37.6538 19.4778 37.8133 19.3825 37.9089 19.2435C37.9506 19.2189 37.9894 19.189 38.0242 19.1542C38.1326 19.0458 38.1934 18.8989 38.1934 18.7457C38.1934 18.7369 38.1929 18.728 38.1919 18.7193L37.638 14.0112C37.6523 13.9605 37.6597 13.9078 37.6597 13.8542C37.6597 13.701 37.5989 13.5541 37.4905 13.4458C37.3827 13.3379 37.2366 13.2771 37.0842 13.2766C35.4065 13.2478 33.7285 13.2249 32.0503 13.2078C32.707 12.118 33.3894 10.4538 33.511 8.97731C33.5787 8.15479 33.4751 7.35653 33.0586 6.75071C32.6337 6.13264 31.9135 5.75777 30.8472 5.72846L30.8472 5.72814L30.8353 5.72844C29.0928 5.77231 27.3832 6.21271 25.8364 7.01616C24.7935 7.49015 23.8511 8.14935 23.0525 8.9571C22.2768 8.13813 21.3568 7.46107 20.3332 6.96271C18.717 6.06446 16.8956 5.60043 15.0467 5.61587C14.1615 5.57151 13.2869 5.82608 12.5638 6.33878C11.8387 6.85282 11.3081 7.59631 11.0578 8.44912C11.0549 8.45881 11.0527 8.46867 11.0512 8.47865C10.9031 9.44683 10.9903 10.4364 11.3054 11.3638C11.5426 12.0622 11.9039 12.7099 12.3699 13.2766C10.7673 13.304 9.16437 13.3368 7.56124 13.375C7.34306 13.3759 7.17944 13.4861 7.08763 13.6379C6.98406 13.7424 6.92921 13.8888 6.94508 14.0581M9.38361 19.7549C9.37953 19.7805 9.37699 19.8069 9.3761 19.8341M9.38361 19.7549L9.3761 19.8341M6.94508 14.0581L7.17036 14.037M6.94508 14.0581L7.17036 14.037M7.17036 14.037C7.15952 13.9214 7.2007 13.8355 7.26787 13.7793L7.04384 19.2237C7.28968 17.5058 7.33215 15.7649 7.17036 14.037ZM9.3761 19.8341C9.16259 25.136 9.26583 30.446 9.68527 35.7356M9.3761 19.8341L10.2976 36.3864C10.1324 36.4018 9.98628 36.35 9.88017 36.2462C9.78891 36.157 9.73967 36.0419 9.72152 35.9299M9.68527 35.7356C9.68635 35.8041 9.69864 35.8694 9.72152 35.9299M9.68527 35.7356C9.68522 35.7323 9.68519 35.729 9.68519 35.7257H9.91146L9.6859 35.7436C9.68569 35.7409 9.68548 35.7383 9.68527 35.7356ZM9.72152 35.9299C9.71957 35.9178 9.71797 35.9058 9.71673 35.8939L9.94177 35.8704L9.73637 35.9653C9.73101 35.9537 9.72606 35.9419 9.72152 35.9299ZM22.8081 19.3464C26.4576 19.3041 30.107 19.318 33.7565 19.388C33.7192 19.4673 33.7013 19.5586 33.7074 19.6582C33.7708 20.753 33.8472 21.8468 33.9367 22.9395C30.2708 22.7817 26.605 22.6918 22.9392 22.6696L22.8081 19.3464ZM10.5313 19.8422C10.5313 19.7928 10.5258 19.7455 10.5152 19.7009C14.2278 19.5297 17.9404 19.4166 21.653 19.3616L21.7833 22.6649C18.0036 22.6568 14.2238 22.7208 10.4441 22.857C10.4618 21.855 10.4908 20.853 10.5311 19.8513L10.5313 19.8514V19.8422ZM13.8249 13.2531C13.8144 13.208 13.7979 13.1631 13.775 13.1195C13.7878 13.045 13.7626 12.9676 13.7055 12.9149C13.0996 12.3552 12.6488 11.6483 12.3972 10.8628C12.1469 10.0815 12.102 9.24899 12.2668 8.44548C12.5311 7.66518 13.0852 7.20055 13.7726 6.94705C14.4711 6.68943 15.3038 6.6527 16.0843 6.74167C17.6443 6.92375 19.1408 7.46499 20.4564 8.32287L20.4564 8.32292L20.4606 8.32554C20.8556 8.57092 21.6531 9.12493 22.3273 9.78223C22.197 9.94937 22.0721 10.1212 21.9529 10.2976C21.6334 10.7692 21.3836 11.5212 21.4278 12.1825C21.4501 12.5167 21.5491 12.8479 21.7747 13.1041C21.7968 13.1292 21.8199 13.1533 21.8439 13.1764C19.1716 13.1871 16.4986 13.2127 13.8249 13.2531ZM30.7245 13.1956C28.4762 13.1769 26.2274 13.1687 23.9781 13.171C24.1977 12.9739 24.3442 12.7179 24.4311 12.4429C24.6284 11.8177 24.5306 11.056 24.2379 10.5016C24.2356 10.4971 24.233 10.4927 24.2304 10.4884C24.0979 10.2739 23.9573 10.0653 23.8089 9.86311C24.1758 9.49488 24.5771 9.16197 25.0078 8.86909C26.242 8.04298 27.6167 7.44919 29.0643 7.11695L29.0665 7.11643C29.7663 6.94849 30.6217 6.81313 31.2893 6.96095C31.6176 7.03365 31.8837 7.17122 32.068 7.3915C32.2507 7.60968 32.3743 7.9342 32.3718 8.42279C32.2981 10.0684 31.7564 11.6588 30.8104 13.0074L30.8103 13.0073L30.8074 13.0118C30.7677 13.0713 30.7402 13.1332 30.7245 13.1956ZM34.0366 24.0996C34.3649 27.7315 34.8373 31.3495 35.4528 34.9449C31.4415 34.6671 27.4226 34.5441 23.4049 34.5757C23.4065 34.5543 23.407 34.5323 23.4063 34.5098L23.4062 34.5079L22.9848 23.8253C26.6687 23.8481 30.3526 23.9395 34.0366 24.0996ZM22.6898 11.3349L22.69 11.335L22.694 11.3269C22.8077 11.0998 22.9408 10.8832 23.0919 10.6796C23.2599 10.9349 23.3744 11.182 23.4197 11.4116C23.4766 11.7001 23.4257 11.9625 23.2206 12.2016C23.0739 12.3677 22.9751 12.3834 22.912 12.3708C22.832 12.3548 22.7088 12.2765 22.5531 12.0545C22.5212 11.8066 22.5688 11.5545 22.6898 11.3349ZM10.7993 35.1838C10.5191 31.4666 10.3955 27.7397 10.4288 24.0132C14.2288 23.8759 18.0289 23.8116 21.8289 23.8204L22.2511 34.5218C22.2512 34.5448 22.2526 34.5672 22.2552 34.589C18.4321 34.6472 14.6109 34.8455 10.7993 35.1838ZM36.9851 18.309C27.3301 18.0369 17.6841 18.1563 8.04702 18.6673C8.20563 17.29 8.23657 15.9008 8.13934 14.5174C17.5936 14.3083 27.0564 14.2768 36.528 14.4232L36.9851 18.309Z" fill="#272727" stroke="#272727" stroke-width="0.452541" stroke-linejoin="round"/>
</svg>
