<svg width="48" height="48" viewBox="0 0 48 48" fill="none" xmlns="http://www.w3.org/2000/svg">
<circle cx="24" cy="24" r="24" fill="white"/>
<path d="M15 24C15 25.1819 15.2328 26.3522 15.6851 27.4442C16.1374 28.5361 16.8003 29.5282 17.636 30.364C18.4718 31.1997 19.4639 31.8626 20.5558 32.3149C21.6478 32.7672 22.8181 33 24 33C25.1819 33 26.3522 32.7672 27.4442 32.3149C28.5361 31.8626 29.5282 31.1997 30.364 30.364C31.1997 29.5282 31.8626 28.5361 32.3149 27.4442C32.7672 26.3522 33 25.1819 33 24C33 22.8181 32.7672 21.6478 32.3149 20.5558C31.8626 19.4639 31.1997 18.4718 30.364 17.636C29.5282 16.8003 28.5361 16.1374 27.4442 15.6851C26.3522 15.2328 25.1819 15 24 15C22.8181 15 21.6478 15.2328 20.5558 15.6851C19.4639 16.1374 18.4718 16.8003 17.636 17.636C16.8003 18.4718 16.1374 19.4639 15.6851 20.5558C15.2328 21.6478 15 22.8181 15 24Z" stroke="#1A1A1A" stroke-width="1.5" stroke-linecap="round" stroke-linejoin="round"/>
<path d="M21 22C21 22.7956 21.3161 23.5587 21.8787 24.1213C22.4413 24.6839 23.2044 25 24 25C24.7956 25 25.5587 24.6839 26.1213 24.1213C26.6839 23.5587 27 22.7956 27 22C27 21.2044 26.6839 20.4413 26.1213 19.8787C25.5587 19.3161 24.7956 19 24 19C23.2044 19 22.4413 19.3161 21.8787 19.8787C21.3161 20.4413 21 21.2044 21 22Z" stroke="#1A1A1A" stroke-width="1.5" stroke-linecap="round" stroke-linejoin="round"/>
<path d="M18.168 30.849C18.4155 30.0252 18.922 29.3032 19.6122 28.79C20.3025 28.2768 21.1398 27.9997 22 28H26C26.8613 27.9997 27.6996 28.2774 28.3904 28.7918C29.0812 29.3062 29.5875 30.0298 29.834 30.855" stroke="#1A1A1A" stroke-width="1.5" stroke-linecap="round" stroke-linejoin="round"/>
</svg>
