<svg width="107" height="31" viewBox="0 0 107 31" fill="none" xmlns="http://www.w3.org/2000/svg">
<path d="M12.8413 31.004C10.5173 31.004 8.26331 30.696 6.07931 30.08C3.92331 29.436 2.18731 28.61 0.871313 27.602L3.18131 22.478C4.44131 23.402 5.93931 24.144 7.67531 24.704C9.41131 25.264 11.1473 25.544 12.8833 25.544C14.8153 25.544 16.2433 25.264 17.1673 24.704C18.0913 24.116 18.5533 23.346 18.5533 22.394C18.5533 21.694 18.2733 21.12 17.7133 20.672C17.1813 20.196 16.4813 19.818 15.6133 19.538C14.7733 19.258 13.6253 18.95 12.1693 18.614C9.92931 18.082 8.09531 17.55 6.66731 17.018C5.23931 16.486 4.00731 15.632 2.97131 14.456C1.96331 13.28 1.45931 11.712 1.45931 9.752C1.45931 8.044 1.92131 6.504 2.84531 5.132C3.76931 3.732 5.15531 2.626 7.00331 1.814C8.87931 1.002 11.1613 0.595999 13.8493 0.595999C15.7253 0.595999 17.5593 0.819999 19.3513 1.268C21.1433 1.716 22.7113 2.36 24.0553 3.2L21.9553 8.366C19.2393 6.826 16.5233 6.056 13.8073 6.056C11.9033 6.056 10.4893 6.364 9.56531 6.98C8.66931 7.596 8.22131 8.408 8.22131 9.416C8.22131 10.424 8.73931 11.18 9.77531 11.684C10.8393 12.16 12.4493 12.636 14.6053 13.112C16.8453 13.644 18.6793 14.176 20.1073 14.708C21.5353 15.24 22.7533 16.08 23.7613 17.228C24.7973 18.376 25.3153 19.93 25.3153 21.89C25.3153 23.57 24.8393 25.11 23.8873 26.51C22.9633 27.882 21.5633 28.974 19.6873 29.786C17.8113 30.598 15.5293 31.004 12.8413 31.004ZM40.2545 30.836C37.8745 30.836 35.7325 30.346 33.8285 29.366C31.9525 28.358 30.4825 26.972 29.4185 25.208C28.3545 23.444 27.8225 21.442 27.8225 19.202C27.8225 16.962 28.3545 14.96 29.4185 13.196C30.4825 11.432 31.9525 10.06 33.8285 9.08C35.7325 8.072 37.8745 7.568 40.2545 7.568C42.6345 7.568 44.7625 8.072 46.6385 9.08C48.5145 10.06 49.9845 11.432 51.0485 13.196C52.1125 14.96 52.6445 16.962 52.6445 19.202C52.6445 21.442 52.1125 23.444 51.0485 25.208C49.9845 26.972 48.5145 28.358 46.6385 29.366C44.7625 30.346 42.6345 30.836 40.2545 30.836ZM40.2545 25.46C41.9345 25.46 43.3065 24.9 44.3705 23.78C45.4625 22.632 46.0085 21.106 46.0085 19.202C46.0085 17.298 45.4625 15.786 44.3705 14.666C43.3065 13.518 41.9345 12.944 40.2545 12.944C38.5745 12.944 37.1885 13.518 36.0965 14.666C35.0045 15.786 34.4585 17.298 34.4585 19.202C34.4585 21.106 35.0045 22.632 36.0965 23.78C37.1885 24.9 38.5745 25.46 40.2545 25.46ZM67.146 31.004C64.822 31.004 62.568 30.696 60.384 30.08C58.228 29.436 56.492 28.61 55.176 27.602L57.486 22.478C58.746 23.402 60.244 24.144 61.98 24.704C63.716 25.264 65.452 25.544 67.188 25.544C69.12 25.544 70.548 25.264 71.472 24.704C72.396 24.116 72.858 23.346 72.858 22.394C72.858 21.694 72.578 21.12 72.018 20.672C71.486 20.196 70.786 19.818 69.918 19.538C69.078 19.258 67.93 18.95 66.474 18.614C64.234 18.082 62.4 17.55 60.972 17.018C59.544 16.486 58.312 15.632 57.276 14.456C56.268 13.28 55.764 11.712 55.764 9.752C55.764 8.044 56.226 6.504 57.15 5.132C58.074 3.732 59.46 2.626 61.308 1.814C63.184 1.002 65.466 0.595999 68.154 0.595999C70.03 0.595999 71.864 0.819999 73.656 1.268C75.448 1.716 77.016 2.36 78.36 3.2L76.26 8.366C73.544 6.826 70.828 6.056 68.112 6.056C66.208 6.056 64.794 6.364 63.87 6.98C62.974 7.596 62.526 8.408 62.526 9.416C62.526 10.424 63.044 11.18 64.08 11.684C65.144 12.16 66.754 12.636 68.91 13.112C71.15 13.644 72.984 14.176 74.412 14.708C75.84 15.24 77.058 16.08 78.066 17.228C79.102 18.376 79.62 19.93 79.62 21.89C79.62 23.57 79.144 25.11 78.192 26.51C77.268 27.882 75.868 28.974 73.992 29.786C72.116 30.598 69.834 31.004 67.146 31.004ZM94.5592 30.836C92.1792 30.836 90.0372 30.346 88.1332 29.366C86.2572 28.358 84.7872 26.972 83.7232 25.208C82.6592 23.444 82.1272 21.442 82.1272 19.202C82.1272 16.962 82.6592 14.96 83.7232 13.196C84.7872 11.432 86.2572 10.06 88.1332 9.08C90.0372 8.072 92.1792 7.568 94.5592 7.568C96.9392 7.568 99.0672 8.072 100.943 9.08C102.819 10.06 104.289 11.432 105.353 13.196C106.417 14.96 106.949 16.962 106.949 19.202C106.949 21.442 106.417 23.444 105.353 25.208C104.289 26.972 102.819 28.358 100.943 29.366C99.0672 30.346 96.9392 30.836 94.5592 30.836ZM94.5592 25.46C96.2392 25.46 97.6112 24.9 98.6752 23.78C99.7672 22.632 100.313 21.106 100.313 19.202C100.313 17.298 99.7672 15.786 98.6752 14.666C97.6112 13.518 96.2392 12.944 94.5592 12.944C92.8792 12.944 91.4932 13.518 90.4012 14.666C89.3092 15.786 88.7632 17.298 88.7632 19.202C88.7632 21.106 89.3092 22.632 90.4012 23.78C91.4932 24.9 92.8792 25.46 94.5592 25.46Z" fill="#1A1A1A"/>
</svg>
