<svg width="61" height="60" viewBox="0 0 61 60" fill="none" xmlns="http://www.w3.org/2000/svg">
<path d="M25.1111 24.2428H13.2194C13.1234 24.2428 13.03 24.2666 12.9469 24.311C12.761 24.3585 12.6013 24.4913 12.5254 24.6602C12.4831 24.7542 12.4646 24.8655 12.4906 24.9804C12.5169 25.0967 12.5849 25.1984 12.6844 25.2781C16.1103 28.0187 19.4513 30.8307 22.7077 33.7139L19.4674 45.3378C19.4651 45.3459 19.4633 45.3541 19.462 45.3624C19.4434 45.4768 19.4599 45.5935 19.5081 45.6976C19.4836 45.8355 19.5099 45.9781 19.5828 46.0987C19.6623 46.2302 19.7908 46.3247 19.94 46.3615C20.0885 46.3981 20.2455 46.3744 20.3767 46.2958C23.8682 44.2549 27.2303 42.0006 30.4439 39.5457C33.8575 41.9478 37.3694 44.1889 40.9798 46.269C40.983 46.2708 40.9861 46.2726 40.9894 46.2742C40.9927 46.2759 40.9961 46.2776 40.9996 46.2792C41.0165 46.2868 41.0336 46.2936 41.051 46.2995C41.1577 46.3985 41.298 46.4538 41.4441 46.4538C41.5973 46.4538 41.7442 46.393 41.8526 46.2846C41.9609 46.1763 42.0218 46.0294 42.0218 45.8762L42.0218 45.8754C42.0075 41.7723 41.3285 37.6992 40.0116 33.8143L48.3506 25.5433L48.3513 25.5426C48.4569 25.437 48.5141 25.3089 48.5207 25.175C48.526 25.0673 48.4983 24.9666 48.4516 24.8808C48.4321 24.7625 48.376 24.6524 48.2902 24.5666C48.1818 24.4582 48.0349 24.3974 47.8817 24.3974L47.8812 24.3974C44.0038 24.4064 40.1294 24.1922 36.2771 23.7561C36.1729 23.6564 36.0351 23.5994 35.8909 23.5962L35.8064 23.5877C35.2206 20.1712 34.0519 16.8798 32.3503 13.8579C32.3461 13.8502 32.3413 13.8429 32.3362 13.8358C32.3276 13.824 32.3186 13.8126 32.3092 13.8015C32.2061 13.6558 32.0349 13.5647 31.8597 13.5487C31.6696 13.5314 31.4635 13.6019 31.3237 13.7933L31.3217 13.796C28.9773 17.1078 26.9006 20.6011 25.1111 24.2428ZM26.2175 24.6272C27.8344 21.3486 29.686 18.1913 31.7577 15.1801C33.1209 17.7834 34.0847 20.5772 34.6165 23.4676L32.8366 23.288C32.8262 23.2869 32.8157 23.2866 32.8053 23.287C32.6562 23.2926 32.5147 23.3544 32.4093 23.4599C32.3038 23.5654 32.242 23.7068 32.2363 23.856L32.2362 23.856V23.8645C32.2362 24.0178 32.2971 24.1647 32.4054 24.273L32.5654 24.113L32.4054 24.273C32.5107 24.3783 32.6525 24.4388 32.8011 24.4421L35.1345 24.6775C35.2234 24.7554 35.3387 24.8072 35.4738 24.8205C39.2001 25.2706 42.9481 25.5136 46.7006 25.5486L38.9125 33.2733C38.9119 33.2738 38.9114 33.2743 38.9108 33.2749C38.7874 33.3937 38.7314 33.543 38.7396 33.6935C38.7464 33.8186 38.7966 33.9319 38.8674 34.0217C40.0689 37.5158 40.7366 41.1694 40.8494 44.8592C37.4207 42.8444 34.0739 40.6903 30.8089 38.3971C30.7459 38.3513 30.6774 38.3188 30.6054 38.3021C30.4448 38.2312 30.256 38.2468 30.0902 38.3728L30.0895 38.3733C27.1307 40.6402 24.048 42.7401 20.8558 44.6633L23.7148 34.591L26.2642 36.7514C26.3162 36.8031 26.3777 36.8444 26.4452 36.8731C26.5166 36.9034 26.5934 36.9191 26.6711 36.9191C26.7487 36.9191 26.8256 36.9034 26.8971 36.8731C26.9686 36.8427 27.0332 36.7982 27.087 36.7423L27.0871 36.7424L27.0914 36.7376C27.1906 36.6286 27.2456 36.4866 27.2456 36.3393C27.2456 36.192 27.1906 36.05 27.0914 35.941C27.0848 35.9337 27.0776 35.9268 27.07 35.9204L23.8099 33.1692C23.7905 33.1453 23.769 33.1226 23.7457 33.1012L23.744 33.0997C20.7944 30.4484 17.7752 27.8812 14.6865 25.3981H25.6731C25.8263 25.3981 25.9732 25.3372 26.0816 25.2289C26.1899 25.1206 26.2508 24.9737 26.2508 24.8204C26.2508 24.754 26.2393 24.6887 26.2175 24.6272Z" fill="#272727" stroke="#272727" stroke-width="0.452541" stroke-linejoin="round"/>
</svg>
