<svg width="73" height="72" viewBox="0 0 73 72" fill="none" xmlns="http://www.w3.org/2000/svg">
<circle cx="36.5" cy="36" r="36" fill="#A9D6CB"/>
<path d="M21.0703 51.0185C20.7246 50.7913 20.3937 50.5423 20.0798 50.273L18.986 49.335C18.8096 49.1842 18.5806 49.1096 18.3492 49.1276C18.1178 49.1457 17.9031 49.2549 17.7523 49.4312C17.6014 49.6076 17.5268 49.8367 17.5449 50.0681C17.5629 50.2994 17.6721 50.5142 17.8485 50.665L18.9423 51.6013C19.3128 51.9196 19.7036 52.2136 20.1121 52.4815C20.3061 52.6091 20.5429 52.6545 20.7703 52.6075C20.9978 52.5606 21.1972 52.4253 21.3249 52.2312C21.4525 52.0372 21.4979 51.8005 21.4509 51.573C21.404 51.3456 21.2686 51.1461 21.0746 51.0185H21.0703ZM28.4789 52.4867C27.9377 52.5785 27.3898 52.6248 26.8409 52.625H26.4375C25.4855 52.6252 24.5386 52.4858 23.627 52.2111C23.4047 52.1443 23.1649 52.1685 22.9605 52.2785C22.756 52.3884 22.6036 52.5751 22.5368 52.7974C22.4699 53.0197 22.4941 53.2595 22.6041 53.4639C22.714 53.6684 22.9007 53.8208 23.123 53.8876C24.1982 54.2107 25.3148 54.3749 26.4375 54.375H26.8409C27.4877 54.3749 28.1334 54.3205 28.7711 54.2122C28.8844 54.1931 28.9928 54.1517 29.0902 54.0907C29.1875 54.0296 29.2718 53.9499 29.3384 53.8562C29.4049 53.7625 29.4524 53.6567 29.478 53.5447C29.5036 53.4326 29.5069 53.3167 29.4878 53.2034C29.4686 53.0901 29.4272 52.9817 29.3662 52.8843C29.3051 52.787 29.2254 52.7027 29.1317 52.6361C29.038 52.5696 28.9322 52.5221 28.8202 52.4965C28.7081 52.4709 28.5922 52.4676 28.4789 52.4867ZM54.014 49.335L52.9202 50.273C52.6063 50.5423 52.2754 50.7913 51.9298 51.0185C51.7357 51.1461 51.6004 51.3456 51.5535 51.573C51.5065 51.8005 51.5519 52.0372 51.6795 52.2312C51.8071 52.4253 52.0066 52.5606 52.234 52.6075C52.4615 52.6545 52.6982 52.6091 52.8923 52.4815C53.3005 52.2151 53.6912 51.9228 54.0621 51.6065L55.1559 50.6694C55.2432 50.5947 55.315 50.5035 55.3671 50.4011C55.4192 50.2987 55.4506 50.187 55.4595 50.0724C55.4685 49.9579 55.4547 49.8427 55.4192 49.7334C55.3836 49.6241 55.3268 49.523 55.2521 49.4356C55.1774 49.3483 55.0863 49.2765 54.9839 49.2244C54.8814 49.1723 54.7698 49.1409 54.6552 49.132C54.5406 49.123 54.4254 49.1368 54.3162 49.1723C54.2069 49.2079 54.1057 49.2647 54.0184 49.3394L54.014 49.335ZM49.373 52.2111C48.4614 52.4858 47.5145 52.6252 46.5625 52.625H46.1591C45.6102 52.6248 45.0623 52.5785 44.5211 52.4867C44.4078 52.4676 44.2919 52.4709 44.1798 52.4965C44.0678 52.5221 43.962 52.5696 43.8683 52.6361C43.7746 52.7027 43.6949 52.787 43.6338 52.8843C43.5728 52.9817 43.5314 53.0901 43.5123 53.2034C43.4931 53.3167 43.4964 53.4326 43.522 53.5447C43.5476 53.6567 43.5951 53.7625 43.6616 53.8562C43.796 54.0454 44.0001 54.1735 44.2289 54.2122C44.8666 54.3205 45.5123 54.3749 46.1591 54.375H46.5625C47.6852 54.3749 48.8018 54.2107 49.877 53.8876C50.0993 53.8208 50.286 53.6684 50.3959 53.4639C50.5059 53.2595 50.5301 53.0197 50.4633 52.7974C50.3964 52.5751 50.244 52.3884 50.0395 52.2785C49.8351 52.1685 49.5953 52.1443 49.373 52.2111Z" fill="#264065"/>
<path d="M54.0621 41.3996C53.0945 40.5754 51.9978 39.9161 50.8159 39.4484C51.7003 37.9864 52.2945 36.3675 52.5659 34.6805L53.9939 25.6365C54.0153 25.5002 54.0043 25.3607 53.9615 25.2294C53.9188 25.0982 53.8456 24.9789 53.748 24.8814C53.651 24.7829 53.5318 24.7093 53.4004 24.6667C53.2689 24.624 53.1292 24.6136 52.9929 24.6364L46.2624 25.6986L44.2341 20.7908C44.1814 20.6634 44.0993 20.5502 43.9946 20.4606C43.8898 20.371 43.7654 20.3074 43.6314 20.2749C43.4974 20.2425 43.3576 20.2422 43.2235 20.2741C43.0893 20.3059 42.9646 20.3691 42.8595 20.4583L40.6877 22.3036L37.2595 16.3125C37.1766 16.1869 37.0638 16.0838 36.9312 16.0124C36.7987 15.9411 36.6505 15.9038 36.5 15.9038C36.3495 15.9038 36.2013 15.9411 36.0687 16.0124C35.9362 16.0838 35.8234 16.1869 35.7405 16.3125L32.3166 22.3001L30.1449 20.4548C30.0402 20.3648 29.9155 20.3012 29.7813 20.2692C29.647 20.2373 29.5071 20.2379 29.3731 20.271C29.2391 20.3034 29.1147 20.3669 29.0099 20.4565C28.9052 20.546 28.823 20.6591 28.7702 20.7864L26.7674 25.6208L20.5006 24.632C20.3644 24.6106 20.2251 24.6217 20.094 24.6644C19.9628 24.7071 19.8437 24.7802 19.7462 24.8777C19.6487 24.9752 19.5756 25.0944 19.5329 25.2255C19.4902 25.3566 19.4791 25.4959 19.5005 25.6321L20.925 34.6875C21.1913 36.3142 21.7549 37.8779 22.5875 39.3005C21.2531 39.7699 20.017 40.4818 18.9414 41.4005L15.8089 44.0868C15.7131 44.1689 15.6362 44.2708 15.5835 44.3854C15.5309 44.5 15.5036 44.6247 15.5036 44.7509C15.5036 44.877 15.5309 45.0017 15.5835 45.1163C15.6362 45.231 15.7131 45.3329 15.8089 45.415L18.9387 48.1013C21.0284 49.8891 23.6874 50.8726 26.4375 50.875H26.84C28.0279 50.8759 29.2086 50.692 30.34 50.3299C31.0114 53.9677 33.022 57.2218 35.975 59.45C36.1264 59.5636 36.3107 59.625 36.5 59.625C36.6893 59.625 36.8735 59.5636 37.025 59.45C39.9791 57.2226 41.991 53.9688 42.6635 50.3308C43.795 50.6921 44.9757 50.8757 46.1635 50.875H46.566C49.3165 50.8726 51.9759 49.8887 54.0656 48.1004L57.1981 45.4141C57.2939 45.332 57.3707 45.2301 57.4234 45.1155C57.4761 45.0008 57.5034 44.8762 57.5034 44.75C57.5034 44.6238 57.4761 44.4992 57.4234 44.3845C57.3707 44.2699 57.2939 44.168 57.1981 44.0859L54.0621 41.3996ZM52.075 26.55L50.8325 34.4075C50.5726 36.0701 49.9533 37.6559 49.0177 39.0546C48.0218 40.5384 46.7 41.7748 45.1532 42.6696C43.6063 43.5643 41.8754 44.0936 40.0927 44.2171L39.5957 44.2504C38.7318 44.312 37.8672 44.1403 37.0924 43.7534C37.081 43.7481 37.0714 43.7429 37.0591 43.7385C36.5938 43.5024 36.1689 43.194 35.8 42.825C35.3052 42.3301 34.9219 41.7352 34.6758 41.0801C34.4296 40.425 34.3264 39.7249 34.3729 39.0266L34.4052 38.5296C34.5809 35.8924 35.6477 33.3932 37.4306 31.442C39.2136 29.4909 41.6067 28.2037 44.2175 27.7916L52.075 26.55ZM43.0721 22.5696L44.4809 25.9821L43.9445 26.0696C43.5945 26.1248 43.2445 26.2096 42.8945 26.2945C42.6521 25.7984 42.4027 25.3136 42.1437 24.8604L41.5689 23.8541L43.0721 22.5696ZM32.377 25.7249L36.5 18.5131L40.623 25.7249C40.8234 26.0749 41.0141 26.4354 41.2005 26.8064C40.2873 27.1583 39.4153 27.6089 38.6 28.1504C37.9366 28.6016 37.3157 29.1124 36.745 29.6764C35.3717 28.3138 33.7079 27.2797 31.8782 26.6515C32.0436 26.3304 32.2125 26.025 32.377 25.7249ZM29.927 22.5688L31.4329 23.8489L30.8554 24.8604C30.6209 25.2769 30.3916 25.7161 30.1624 26.1729C29.9471 26.1283 29.7424 26.0924 29.5411 26.0635L28.5454 25.906L29.927 22.5688ZM21.4167 26.55L29.2769 27.7908C29.6598 27.849 30.0395 27.9269 30.4144 28.0244C32.3668 28.5283 34.1491 29.5448 35.5769 30.9688C33.8762 33.098 32.862 35.6933 32.6684 38.4115L32.636 38.9085C32.5722 39.8556 32.7119 40.8055 33.0458 41.6941C33.3796 42.5828 33.8998 43.3897 34.5715 44.0605C34.6284 44.1183 34.6914 44.1681 34.7509 44.2233C34.4687 44.2564 34.1842 44.2663 33.9004 44.253L33.3937 44.2171C32.7411 44.1745 32.0937 44.0735 31.4591 43.9153C30.364 43.6562 29.3122 43.24 28.3362 42.6798C26.8758 41.8367 25.6178 40.6838 24.6507 39.3023L24.4757 39.0564C23.5432 37.6569 22.9244 36.0722 22.6619 34.411L21.4167 26.55ZM26.84 49.125H26.4375C24.105 49.1229 21.8498 48.2889 20.0771 46.773L17.719 44.75L20.0815 42.727C21.1111 41.8507 22.3121 41.1987 23.6077 40.8125C25.4553 43.2269 28.0844 44.9244 31.0452 45.6145C31.7762 45.7975 32.522 45.9146 33.2739 45.9645L33.7787 46.0004C33.8557 46.0048 33.9327 46.0056 34.0089 46.0074L33.7464 46.2699C32.8687 47.1514 31.8288 47.8547 30.6839 48.341C29.469 48.8602 28.1612 49.1269 26.84 49.125ZM36.5 57.6344C34.0806 55.6066 32.4796 52.7694 31.9946 49.65C33.1003 49.1021 34.1098 48.3784 34.9836 47.5071L36.5 45.9873L38.0164 47.5036C38.8904 48.3749 39.8998 49.0989 41.0054 49.6474C40.521 52.7677 38.92 55.6059 36.5 57.6344ZM52.9237 46.7721C51.151 48.2886 48.8954 49.1229 46.5625 49.125H46.16C44.8365 49.1263 43.5267 48.8583 42.31 48.3375C41.1671 47.8503 40.129 47.1471 39.2527 46.2664L38.9841 45.9978C39.0795 45.9978 39.1749 46.0118 39.2702 46.0118C39.4181 46.0118 39.5669 46.0074 39.7147 45.9978L40.2117 45.9645C42.0675 45.8325 43.8759 45.3178 45.5231 44.453C47.1704 43.5882 48.6209 42.3919 49.7834 40.9394C50.9307 41.3369 51.9948 41.9429 52.922 42.727L55.281 44.75L52.9237 46.7721Z" fill="#264065"/>
<path d="M13.75 43.875H12V45.625H13.75V43.875Z" fill="#264065"/>
<path d="M19 22H17.25V23.75H19V22Z" fill="#264065"/>
<path d="M37.375 12.375H35.625V14.125H37.375V12.375Z" fill="#264065"/>
<path d="M55.75 22H54V23.75H55.75V22Z" fill="#264065"/>
<path d="M61 43.875H59.25V45.625H61V43.875Z" fill="#264065"/>
</svg>
