<svg width="73" height="72" viewBox="0 0 73 72" fill="none" xmlns="http://www.w3.org/2000/svg">
<circle cx="36.5" cy="36" r="36" fill="#A9D6CB"/>
<path d="M24.4714 53.4055L25.2037 54.5771C26.3271 56.3626 27.8677 57.8481 29.6927 58.9059C31.5178 59.9636 33.5727 60.5617 35.6804 60.6488C37.788 60.7358 39.8852 60.3092 41.7913 59.4056C43.6974 58.5019 45.3552 57.1485 46.622 55.4617L47.9056 53.7502C49.5708 51.5216 50.4798 48.819 50.5 46.0371L53.5625 43.4839C54.0114 43.1123 54.3784 42.6517 54.6401 42.1311C54.9019 41.6105 55.0528 41.0413 55.0833 40.4593C55.1138 39.8774 55.0233 39.2955 54.8174 38.7504C54.6115 38.2053 54.2947 37.7088 53.8871 37.2924C53.9595 37.1651 53.9983 37.0214 54 36.875V31.625C53.9969 28.6756 53.2478 25.7749 51.8224 23.1928C50.3971 20.6107 48.3417 18.4311 45.8476 16.8567L44.879 14.9317C44.1022 13.3744 42.9068 12.0645 41.4269 11.1488C39.947 10.2332 38.2411 9.74817 36.5009 9.74817C34.7606 9.74817 33.0548 10.2332 31.5749 11.1488C30.0949 12.0645 28.8995 13.3744 28.1227 14.9317L27.4052 16.358C27.3448 16.4821 27.3148 16.6189 27.3177 16.757C24.7669 18.3076 22.6604 20.4916 21.2029 23.0968C19.7455 25.702 18.9866 28.6398 19 31.625V36.875C19.0031 37.0205 19.0438 37.1628 19.1181 37.288C18.7093 37.7041 18.3914 38.2005 18.1845 38.7459C17.9777 39.2913 17.8865 39.8738 17.9166 40.4563C17.9467 41.0388 18.0975 41.6088 18.3595 42.1299C18.6214 42.6511 18.9888 43.1122 19.4384 43.4839L22.5 46.0345V46.5315C22.4992 48.9624 23.1823 51.3445 24.4714 53.4055ZM48.75 36.875V45.9689C48.7449 48.3956 47.9579 50.756 46.5056 52.7002L45.2229 54.4117C44.13 55.8761 42.6966 57.0518 41.0468 57.8372C39.397 58.6226 37.5806 58.9939 35.755 58.9189C33.9293 58.8439 32.1495 58.3249 30.5697 57.4069C28.9899 56.4889 27.6577 55.1995 26.6886 53.6505L25.9554 52.478C24.8403 50.6951 24.2493 48.6344 24.25 46.5315V36.875C24.2449 36.8381 24.2376 36.8016 24.2281 36.7656C25.4969 35.9834 26.7297 35.1486 27.9154 34.25H41.099L48.75 36.5005V36.875ZM30.0854 32.5C30.6165 32.0441 31.1406 31.5786 31.6507 31.1C32.6799 31.6485 33.762 32.0914 34.8804 32.4221L35.149 32.5009L30.0854 32.5ZM53.1565 39.311C53.3522 39.7975 53.3884 40.3337 53.2598 40.8421C53.1311 41.3505 52.8443 41.805 52.4407 42.1399L50.5 43.7569V37.75H50.85C51.3469 37.7479 51.8328 37.8958 52.2443 38.1743C52.6558 38.4528 52.9737 38.8489 53.1565 39.311ZM36.5 11.5C37.8619 11.4979 39.1991 11.8635 40.3705 12.5582C41.5419 13.2529 42.504 14.251 43.1552 15.4471C42.94 15.3596 42.7177 15.287 42.4981 15.2065C42.4911 15.2065 42.4859 15.1969 42.4789 15.1942C42.4465 15.1829 42.4132 15.175 42.3809 15.1636C41.9679 15.0149 41.5482 14.8819 41.1217 14.7646C41.015 14.7349 40.9091 14.7095 40.8024 14.6824C40.4235 14.5861 40.0437 14.496 39.6552 14.4251C39.4356 14.384 39.2177 14.3569 38.9946 14.3236C38.705 14.2825 38.418 14.2361 38.1196 14.2072C37.5832 14.1556 37.0425 14.125 36.5 14.125C34.2122 14.1313 31.9479 14.5861 29.8351 15.4637C30.4843 14.2625 31.4468 13.2597 32.6203 12.5618C33.7939 11.8638 35.1346 11.4969 36.5 11.5ZM36.5 15.875C36.9917 15.875 37.4756 15.9047 37.956 15.9485C38.2299 15.9747 38.5029 16.0176 38.7759 16.0587C38.9605 16.0859 39.1451 16.1095 39.3271 16.1462C39.6885 16.2136 40.0481 16.2959 40.4069 16.3886C40.483 16.4087 40.56 16.4271 40.6352 16.4481C41.0331 16.5578 41.4283 16.6829 41.8209 16.8235C44.8697 17.9197 47.5067 19.9288 49.3728 22.5773C51.2389 25.2258 52.2436 28.3851 52.25 31.625V35.706L35.3739 30.7421C32.9805 30.0397 30.7929 28.7677 28.9986 27.0351C27.2042 25.3024 25.8565 23.1607 25.0707 20.7934C26.5364 19.2333 28.3075 17.9915 30.2738 17.1454C32.2401 16.2993 34.3594 15.8668 36.5 15.875ZM20.75 31.625C20.7495 28.2908 21.8122 25.0433 23.7836 22.3544C25.0587 25.5241 27.2504 28.2413 30.0784 30.1585C29.0931 31.0638 28.0685 31.9242 27.0045 32.7397C26.9957 32.7485 26.9852 32.7537 26.9765 32.7625C25.4292 33.9465 23.8061 35.028 22.1176 36C21.6514 36.005 21.1893 36.0872 20.75 36.2432V31.625ZM20.5592 42.1399C20.167 41.8132 19.8851 41.3737 19.7517 40.881C19.6183 40.3883 19.6401 39.8665 19.814 39.3866C19.9878 38.9068 20.3054 38.4922 20.7234 38.1993C21.1415 37.9064 21.6396 37.7495 22.15 37.75H22.5V43.7569L20.5592 42.1399Z" fill="#264065"/>
<path d="M35.625 41.25C35.625 40.2117 35.3171 39.1966 34.7402 38.3333C34.1633 37.4699 33.3434 36.797 32.3841 36.3996C31.4248 36.0023 30.3692 35.8983 29.3508 36.1009C28.3324 36.3035 27.3969 36.8035 26.6627 37.5377C25.9285 38.2719 25.4285 39.2074 25.2259 40.2258C25.0233 41.2442 25.1273 42.2998 25.5246 43.2591C25.922 44.2184 26.5949 45.0383 27.4583 45.6152C28.3216 46.1921 29.3367 46.5 30.375 46.5C31.767 46.4986 33.1015 45.945 34.0858 44.9608C35.07 43.9765 35.6236 42.642 35.625 41.25ZM30.375 44.75C29.6828 44.75 29.0061 44.5447 28.4305 44.1601C27.8549 43.7756 27.4063 43.2289 27.1414 42.5894C26.8765 41.9499 26.8072 41.2461 26.9423 40.5672C27.0773 39.8883 27.4106 39.2646 27.9001 38.7751C28.3896 38.2856 29.0133 37.9523 29.6922 37.8173C30.3711 37.6822 31.0749 37.7515 31.7144 38.0164C32.3539 38.2813 32.9006 38.7299 33.2851 39.3055C33.6697 39.8811 33.875 40.5578 33.875 41.25C33.875 42.1783 33.5063 43.0685 32.8499 43.7249C32.1935 44.3813 31.3033 44.75 30.375 44.75Z" fill="#264065"/>
<path d="M31.25 38.625H29.5V40.375H31.25V38.625Z" fill="#264065"/>
<path d="M31.25 42.125H29.5V43.875H31.25V42.125Z" fill="#264065"/>
<path d="M33 40.375H31.25V42.125H33V40.375Z" fill="#264065"/>
<path d="M29.5 40.375H27.75V42.125H29.5V40.375Z" fill="#264065"/>
<path d="M37.375 41.25C37.375 42.2884 37.6829 43.3034 38.2598 44.1667C38.8367 45.0301 39.6566 45.703 40.6159 46.1004C41.5752 46.4977 42.6308 46.6017 43.6492 46.3991C44.6676 46.1966 45.6031 45.6965 46.3373 44.9623C47.0715 44.2281 47.5716 43.2926 47.7741 42.2742C47.9767 41.2558 47.8727 40.2002 47.4754 39.2409C47.078 38.2816 46.4051 37.4617 45.5417 36.8848C44.6784 36.3079 43.6634 36 42.625 36C41.233 36.0014 39.8985 36.555 38.9142 37.5392C37.93 38.5235 37.3764 39.858 37.375 41.25ZM42.625 37.75C43.3172 37.75 43.9939 37.9553 44.5695 38.3399C45.1451 38.7244 45.5937 39.2711 45.8586 39.9106C46.1235 40.5501 46.1928 41.2539 46.0577 41.9328C45.9227 42.6118 45.5894 43.2354 45.0999 43.7249C44.6104 44.2144 43.9868 44.5477 43.3078 44.6827C42.6289 44.8178 41.9251 44.7485 41.2856 44.4836C40.6461 44.2187 40.0994 43.7701 39.7149 43.1945C39.3303 42.6189 39.125 41.9422 39.125 41.25C39.125 40.3217 39.4937 39.4315 40.1501 38.7751C40.8065 38.1187 41.6967 37.75 42.625 37.75Z" fill="#264065"/>
<path d="M43.5 38.625H41.75V40.375H43.5V38.625Z" fill="#264065"/>
<path d="M43.5 42.125H41.75V43.875H43.5V42.125Z" fill="#264065"/>
<path d="M45.25 40.375H43.5V42.125H45.25V40.375Z" fill="#264065"/>
<path d="M41.75 40.375H40V42.125H41.75V40.375Z" fill="#264065"/>
<path d="M40.2564 51.1314C39.2593 52.1262 37.9084 52.6849 36.5 52.6849C35.0916 52.6849 33.7406 52.1262 32.7436 51.1314C32.5786 50.972 32.3576 50.8838 32.1281 50.8858C31.8987 50.8878 31.6793 50.9798 31.517 51.142C31.3548 51.3043 31.2628 51.5237 31.2608 51.7531C31.2588 51.9826 31.347 52.2036 31.5064 52.3686C32.8318 53.6911 34.6277 54.4338 36.5 54.4338C38.3723 54.4338 40.1682 53.6911 41.4936 52.3686C41.653 52.2036 41.7412 51.9826 41.7392 51.7531C41.7372 51.5237 41.6452 51.3043 41.483 51.142C41.3207 50.9798 41.1013 50.8878 40.8718 50.8858C40.6424 50.8838 40.4214 50.972 40.2564 51.1314Z" fill="#264065"/>
<path d="M34.3589 49.9125L36.1089 50.7875C36.2117 50.8389 36.3237 50.8695 36.4383 50.8776C36.553 50.8857 36.6681 50.8711 36.7772 50.8347C36.8862 50.7983 36.987 50.7408 37.0738 50.6654C37.1606 50.5901 37.2317 50.4983 37.2831 50.3955C37.3345 50.2927 37.3651 50.1807 37.3732 50.066C37.3813 49.9514 37.3667 49.8362 37.3303 49.7272C37.2939 49.6181 37.2364 49.5173 37.161 49.4305C37.0857 49.3437 36.9939 49.2726 36.8911 49.2212L35.849 48.7006L37.3181 44.8349C37.3589 44.7274 37.3781 44.613 37.3747 44.4981C37.3713 44.3833 37.3453 44.2702 37.2981 44.1654C37.251 44.0606 37.1837 43.9661 37.1 43.8873C37.0164 43.8085 36.918 43.7469 36.8106 43.7061C36.7032 43.6653 36.5888 43.6461 36.4739 43.6495C36.359 43.653 36.2459 43.679 36.1411 43.7261C36.0363 43.7732 35.9418 43.8405 35.863 43.9242C35.7842 44.0078 35.7227 44.1062 35.6819 44.2136L33.9319 48.8187C33.8548 49.0216 33.8558 49.2458 33.9347 49.4479C34.0136 49.65 34.1647 49.8156 34.3589 49.9125Z" fill="#264065"/>
</svg>
