<svg width="10" height="6" viewBox="0 0 10 6" fill="none" xmlns="http://www.w3.org/2000/svg">
<path d="M4.99998 6C4.86837 6.00076 4.73791 5.97554 4.61607 5.92577C4.49424 5.87601 4.38342 5.80268 4.28998 5.71L0.289979 1.71C0.101676 1.5217 -0.00411224 1.2663 -0.00411224 1C-0.00411224 0.7337 0.101676 0.478306 0.289979 0.290002C0.478283 0.101698 0.733678 -0.00408936 0.999979 -0.00408936C1.26628 -0.00408936 1.52168 0.101698 1.70998 0.290002L4.99998 3.59L8.28998 0.300002C8.48128 0.136176 8.72736 0.0505692 8.97903 0.0602903C9.23071 0.0700115 9.46945 0.174344 9.64754 0.352439C9.82564 0.530533 9.92997 0.769272 9.93969 1.02095C9.94941 1.27262 9.8638 1.5187 9.69998 1.71L5.69998 5.71C5.51372 5.89475 5.26232 5.9989 4.99998 6Z" fill="#264065"/>
</svg>
