<svg width="148" height="148" viewBox="0 0 148 148" fill="none" xmlns="http://www.w3.org/2000/svg">
<g filter="url(#filter0_d_1193_293)">
<circle cx="74" cy="50" r="24" fill="white"/>
</g>
<path d="M66.5797 58.3297V41.6703C66.5797 40.9508 67.3742 40.5172 67.9789 40.9039L81.0008 49.2336C81.561 49.5922 81.561 50.4078 81.0008 50.7664L67.9789 59.0961C67.3742 59.4828 66.5797 59.0492 66.5797 58.3297Z" fill="#264065"/>
<path d="M66.9312 58.3297C66.9312 58.0016 66.9312 57.6711 66.9312 57.343C66.9312 56.5062 66.9312 55.6695 66.9312 54.8328C66.9312 53.6961 66.9312 52.5594 66.9312 51.425C66.9312 50.2062 66.9312 48.9875 66.9312 47.7664C66.9312 46.6789 66.9312 45.5914 66.9312 44.5016C66.9312 43.7586 66.9312 43.018 66.9312 42.275C66.9312 42.1016 66.9312 41.9258 66.9312 41.7523C66.9312 41.7266 66.9312 41.6984 66.9312 41.6726C66.9312 41.6609 66.9312 41.6562 66.9312 41.6398C66.9312 41.6187 66.9336 41.6 66.9359 41.5789C66.9312 41.6539 66.9336 41.5906 66.9383 41.5695C66.95 41.5273 66.9617 41.4851 66.9734 41.4453C66.95 41.5156 66.9664 41.457 66.9781 41.4383C66.9945 41.4101 67.0086 41.382 67.0273 41.3539C67.0367 41.3375 67.0484 41.3234 67.0578 41.3094C67.0156 41.368 67.0437 41.3281 67.0555 41.3164C67.0883 41.2836 67.1187 41.2531 67.1539 41.2226C67.0976 41.2719 67.1398 41.232 67.1586 41.2203C67.1773 41.2086 67.1961 41.1969 67.2172 41.1851C67.2336 41.1758 67.25 41.1687 67.2664 41.1594C67.3344 41.1219 67.2148 41.1734 67.2828 41.1523C67.3273 41.1406 67.3695 41.1266 67.4141 41.1172C67.4937 41.0961 67.3672 41.1101 67.4164 41.1172C67.4375 41.1195 67.4633 41.1148 67.4844 41.1148C67.5031 41.1148 67.5219 41.1148 67.5406 41.1172C67.5453 41.1172 67.632 41.1336 67.5781 41.1195C67.5219 41.1055 67.6133 41.1289 67.6156 41.1289C67.6437 41.1359 67.6719 41.1453 67.6976 41.1547C67.7586 41.1734 67.7094 41.1594 67.6953 41.1523C67.7234 41.1664 67.7492 41.1805 67.775 41.1945C67.7844 41.1992 67.7937 41.2062 67.8008 41.2109C67.8031 41.2133 67.8055 41.2133 67.8078 41.2156C67.8406 41.2367 67.8758 41.2578 67.9086 41.2789C68.0844 41.3914 68.2578 41.5016 68.4336 41.6141C69.1156 42.05 69.8 42.4883 70.482 42.9242C71.443 43.5406 72.4062 44.1547 73.3672 44.7711C74.3867 45.4226 75.4062 46.0766 76.4281 46.7281C77.307 47.2906 78.1836 47.8508 79.0625 48.4133C79.5851 48.7484 80.1078 49.0836 80.6328 49.4164C80.6844 49.4492 80.7336 49.482 80.7851 49.5125C80.7969 49.5195 80.8086 49.5266 80.8203 49.5336C80.8226 49.5336 80.825 49.5359 80.825 49.5359C80.8414 49.5476 80.8601 49.5594 80.8766 49.5711C80.8226 49.5289 80.8742 49.5711 80.8859 49.5828C80.9094 49.6086 80.9328 49.632 80.9562 49.6555C80.9703 49.6695 80.9844 49.707 80.9539 49.6531C80.9633 49.6695 80.975 49.6836 80.9844 49.7C80.9984 49.7234 81.0101 49.7492 81.0242 49.775C81.0336 49.7937 81.0406 49.8336 81.0219 49.768C81.0359 49.8125 81.05 49.8547 81.0617 49.9016C81.0664 49.9203 81.0687 49.9367 81.0711 49.9555C81.057 49.8664 81.0687 49.9508 81.0687 49.9719C81.0687 49.9976 81.057 50.1359 81.0711 50.0422C81.0641 50.0867 81.0547 50.1336 81.0406 50.1758C81.0359 50.1945 81.0289 50.2109 81.0219 50.2273C81.0453 50.1547 81.0289 50.2133 81.0172 50.232C81.0055 50.2531 80.9961 50.2742 80.982 50.293C80.975 50.3023 80.9211 50.3773 80.9703 50.3141C80.9398 50.3516 80.9047 50.3844 80.8695 50.4195C80.8601 50.4289 80.818 50.4617 80.8695 50.4219C80.8508 50.4359 80.8391 50.443 80.818 50.457C80.8156 50.457 80.8156 50.4594 80.8133 50.4594C80.8039 50.4664 80.7922 50.4734 80.7828 50.4781C80.3844 50.7336 79.9859 50.9867 79.5875 51.2422C78.7836 51.7555 77.9797 52.2711 77.1758 52.7844C76.1656 53.4289 75.1578 54.0758 74.1476 54.7203C73.1562 55.3555 72.1625 55.9906 71.1711 56.6258C70.3953 57.1226 69.6195 57.6195 68.8437 58.1141C68.4969 58.3367 68.1523 58.5617 67.8031 58.7797C67.7656 58.8031 67.7281 58.8242 67.6883 58.8453C67.7469 58.8148 67.7047 58.8383 67.6906 58.843C67.6672 58.85 67.6437 58.857 67.6203 58.8641C67.5969 58.8711 67.5734 58.8734 67.55 58.8805C67.6133 58.8617 67.5851 58.8781 67.5594 58.8781C67.5125 58.8805 67.468 58.8805 67.4211 58.8781C67.3555 58.8758 67.4187 58.8781 67.4328 58.8805C67.407 58.8758 67.3789 58.8711 67.3531 58.8641C67.3297 58.8594 67.2289 58.8219 67.2664 58.8383C67.3039 58.8547 67.2055 58.8055 67.1867 58.7937C67.168 58.782 67.1492 58.7656 67.1305 58.7562C67.0859 58.7351 67.1844 58.8101 67.1258 58.7516C67.093 58.7187 67.0601 58.6883 67.0297 58.6531C67.0789 58.707 67.0203 58.6367 67.0039 58.6133C66.9898 58.5898 66.9781 58.5641 66.9641 58.5406C66.9547 58.5219 66.95 58.4844 66.9664 58.5476C66.9547 58.5008 66.9383 58.4562 66.9266 58.4094C66.9219 58.3906 66.9242 58.3461 66.9266 58.4141C66.9336 58.3906 66.9312 58.3601 66.9312 58.3297C66.9289 58.1469 66.7719 57.9687 66.5797 57.9781C66.3922 57.9875 66.2258 58.1328 66.2281 58.3297C66.2351 58.7937 66.4883 59.2414 66.9125 59.45C67.3133 59.6469 67.7773 59.6351 68.1594 59.3984C68.2461 59.3445 68.3328 59.2883 68.4172 59.232C68.9867 58.8687 69.5562 58.5031 70.1258 58.1398C71.0422 57.5539 71.9586 56.968 72.875 56.382C73.9133 55.7164 74.9539 55.0531 75.9922 54.3875C76.9391 53.7828 77.8859 53.1758 78.8328 52.5711C79.4703 52.1633 80.1101 51.7555 80.7476 51.3453C80.8812 51.2609 81.0148 51.1742 81.1484 51.0898C81.275 51.0078 81.3945 50.9141 81.4883 50.7945C81.7953 50.4078 81.8516 49.8945 81.643 49.4469C81.514 49.1726 81.2844 48.9992 81.0406 48.8422C80.8531 48.7226 80.6633 48.6008 80.4758 48.4812C79.7609 48.0242 79.0461 47.5672 78.3336 47.1101C77.3492 46.4797 76.3625 45.8492 75.3781 45.2187C74.3422 44.5578 73.3086 43.8945 72.2726 43.2336C71.4078 42.6805 70.543 42.1273 69.6781 41.5742C69.2047 41.2719 68.7336 40.9695 68.2601 40.6672C67.9391 40.4609 67.5828 40.3555 67.1984 40.4422C66.6055 40.5758 66.2281 41.1219 66.2258 41.7125C66.2258 42.1695 66.2258 42.6242 66.2258 43.0812C66.2258 44.0187 66.2258 44.9562 66.2258 45.8937C66.2258 47.0844 66.2258 48.2726 66.2258 49.4633C66.2258 50.6844 66.2258 51.9078 66.2258 53.1289C66.2258 54.1625 66.2258 55.1961 66.2258 56.232C66.2258 56.8508 66.2258 57.4672 66.2258 58.0859C66.2258 58.168 66.2258 58.25 66.2258 58.3344C66.2258 58.5172 66.3875 58.6953 66.5773 58.6859C66.7695 58.6719 66.9312 58.5266 66.9312 58.3297Z" fill="#264065"/>
<defs>
<filter id="filter0_d_1193_293" x="0" y="0" width="148" height="148" filterUnits="userSpaceOnUse" color-interpolation-filters="sRGB">
<feFlood flood-opacity="0" result="BackgroundImageFix"/>
<feColorMatrix in="SourceAlpha" type="matrix" values="0 0 0 0 0 0 0 0 0 0 0 0 0 0 0 0 0 0 127 0" result="hardAlpha"/>
<feOffset dy="24"/>
<feGaussianBlur stdDeviation="25"/>
<feComposite in2="hardAlpha" operator="out"/>
<feColorMatrix type="matrix" values="0 0 0 0 0 0 0 0 0 0 0 0 0 0 0 0 0 0 0.15 0"/>
<feBlend mode="normal" in2="BackgroundImageFix" result="effect1_dropShadow_1193_293"/>
<feBlend mode="normal" in="SourceGraphic" in2="effect1_dropShadow_1193_293" result="shape"/>
</filter>
</defs>
</svg>
