<svg width="64" height="64" viewBox="0 0 64 64" fill="none" xmlns="http://www.w3.org/2000/svg">
<path opacity="0.99" d="M15.5118 37.5709C14.9376 36.9967 14.0137 36.9967 13.4395 37.5709L10.9343 40.0762L23.6832 52.8257L26.1884 50.3203C26.7625 49.7461 26.7625 48.8222 26.1884 48.248L15.5118 37.5709Z" fill="#7EDAD2"/>
<path opacity="0.99" d="M10.2621 39.4039L5.4204 44.2209C4.72901 44.9087 4.72901 46.015 5.4204 46.7028L17.2009 58.4229C17.8923 59.1107 19.0051 59.1107 19.6964 58.4229L24.5008 53.6433L10.2621 39.4039Z" fill="#7EDAD2"/>
<path opacity="0.99" d="M35.1985 11.0388H44.8025C45.7829 11.0388 46.5721 11.828 46.5721 12.8083C46.5721 13.7886 45.7829 14.5779 44.8025 14.5779H35.1985C34.2182 14.5779 33.429 13.7886 33.429 12.8083C33.429 11.828 34.2182 11.0388 35.1985 11.0388Z" fill="#7EDAD2"/>
<path d="M33.0004 5.06348L35.9887 11.0382H44.0123L47.0006 5.06348H33.0004Z" fill="#7EDAD2"/>
<path opacity="0.99" d="M32.9848 4.06685C32.2423 4.06835 31.7602 4.84994 32.0923 5.51414L34.4146 10.1627C33.2669 10.5017 32.4087 11.5586 32.4087 12.8073C32.4087 13.3666 32.5815 13.8892 32.8735 14.3268C29.2606 17.3513 26.4428 22.7602 25.846 29.9189C25.8022 30.4689 26.2121 30.9505 26.7621 30.9951C27.3093 31.0402 27.7906 30.6357 27.8402 30.0888C28.4282 23.0357 31.3496 18.0422 34.6392 15.5534C38.1948 15.6054 41.7872 15.5531 45.3603 15.5621C48.275 17.8134 50.913 22.3578 51.8529 28.0067C51.9453 28.5507 52.4611 28.917 53.0052 28.8251C53.5515 28.7363 53.9218 28.2207 53.8314 27.6747C52.8729 21.9136 50.3326 17.0956 47.093 14.3267C47.385 13.8891 47.5578 13.3665 47.5578 12.8072C47.5578 11.5585 46.6996 10.5016 45.552 10.1626L47.8743 5.51407C48.2063 4.84988 47.7242 4.06825 46.9817 4.06677L32.9848 4.06685ZM34.6021 6.05907H45.364L43.3796 10.0377H36.5865L34.6021 6.05907ZM35.1399 12.0227L44.782 12.0397C45.2256 12.0405 45.5574 12.3637 45.5574 12.8073C45.5574 13.206 45.2813 13.4944 44.905 13.5515L35.1334 13.5707C34.6473 13.5707 34.4063 13.1997 34.4063 12.7871C34.423 12.3635 34.7118 12.0229 35.1399 12.0229V12.0227ZM38.9869 19.1707V19.8445C38.784 19.9139 38.5832 19.9965 38.3951 20.1082C37.5381 20.6169 36.9792 21.4932 36.8834 22.4852C36.7875 23.4772 37.1696 24.4524 37.9166 25.1122C38.4525 25.5856 39.0671 25.8043 39.821 26.0761C40.7236 26.4269 41.0947 26.7938 41.0905 27.415C41.1037 27.7421 40.8278 28.0958 40.5436 28.2646C40.2593 28.4334 39.8334 28.4668 39.5319 28.3388C39.2302 28.2108 38.9641 27.8878 38.8912 27.5712C38.769 27.0323 38.2328 26.6946 37.6939 26.8173C37.1557 26.9404 36.8191 27.4764 36.9419 28.0146C37.1656 28.9858 37.8333 29.7873 38.7506 30.1768C38.8272 30.2093 38.9087 30.219 38.9869 30.2451V30.9229C38.9849 31.4752 39.4307 31.9246 39.983 31.9268C40.5353 31.9246 40.9813 31.4752 40.9791 30.9229V30.2471C41.182 30.1777 41.3829 30.097 41.571 29.9853C42.4279 29.4766 42.9869 28.6003 43.0827 27.6083C43.1785 26.6163 42.7964 25.6469 42.0495 24.9872C41.7628 24.734 41.3624 24.5106 40.5569 24.2189C39.7514 23.9272 39.4367 23.7837 39.2447 23.6141C39.0005 23.3984 38.8442 23.0011 38.8756 22.6766C38.907 22.352 39.1382 21.9957 39.4225 21.8269C39.7068 21.6582 40.1327 21.6325 40.4342 21.7605C40.7358 21.8885 41.002 22.2115 41.0749 22.5281C41.2006 23.0639 41.7357 23.3974 42.2721 23.2742C42.8094 23.1511 43.1457 22.6165 43.0241 22.0789C42.8005 21.1077 42.1328 20.3042 41.2155 19.9148C41.1389 19.8823 41.0574 19.8725 40.9791 19.8464V19.1706C40.9781 18.6206 40.533 18.1747 39.983 18.1747C39.433 18.1748 38.988 18.6206 38.9869 19.1707L38.9869 19.1707ZM55.4853 29.1201L47.1726 35.4972C46.5657 34.4622 45.4515 33.7559 44.1687 33.7647L36.1587 33.8155C34.4151 33.8372 31.4754 32.3919 27.9125 32.1924C24.5447 32.0038 20.6199 32.9334 16.6095 37.2765L16.1974 36.8644C15.0733 35.7403 13.6444 35.9329 12.713 36.8644L10.9082 38.6691C10.464 38.2581 9.92977 38.3057 9.53907 38.6964L4.69718 43.509C3.62569 44.5749 3.62567 46.3475 4.69718 47.4134L16.4787 59.1285C17.5504 60.1945 19.3113 60.1946 20.383 59.1285L25.1898 54.353C25.7399 53.8029 25.5146 53.2598 25.0784 52.8237L26.8792 51.0228C27.7746 50.1274 27.8179 48.6883 27.0316 47.7259C27.657 46.9959 29.0354 45.8139 31.4633 45.8782C35.8777 45.9952 39.3847 46.2269 42.1979 46.1067C45.0111 45.9865 47.24 45.5045 48.7898 43.9582C53.3545 39.404 58.9111 33.8819 58.9111 33.8819C59.6964 33.0935 59.8613 32.7143 60.0138 32.1444C60.21 31.4678 60.1 30.6578 59.6553 29.9697C59.2155 29.2891 58.5107 28.8151 57.751 28.6415C56.9345 28.4251 56.161 28.6283 55.4853 29.1201L55.4853 29.1201ZM57.9465 32.1476C57.9465 32.1476 51.9289 37.9956 47.3718 42.5422C46.3623 43.5494 44.7363 44.0023 42.11 44.1145C39.4837 44.2267 35.9723 43.9962 31.516 43.8782C28.5536 43.7997 26.6389 45.2855 25.6604 46.3216L18.0372 38.7023C25.6061 30.3735 31.0298 35.8817 36.1821 35.8175L44.1842 35.7647C45.019 35.759 45.6589 36.4039 45.6589 37.2413C45.6589 38.0788 45.0195 38.7257 44.1764 38.7257H34.0395C33.4872 38.7279 33.0412 39.1774 33.0434 39.7297C33.0454 40.2789 33.4902 40.7236 34.0395 40.7258H44.1764C45.9408 40.7258 47.3964 39.3863 47.6159 37.6788L56.704 30.708C57.1317 30.3841 57.6269 30.5852 57.9164 30.9301C58.206 31.275 58.2937 31.8004 57.9463 32.1476H57.9465ZM14.7872 38.2746L25.4632 48.9564C25.6581 49.1513 25.6581 49.4178 25.4632 49.6127L23.6683 51.4154L12.3301 40.0754L14.131 38.2746C14.3851 38.0204 14.6848 38.1722 14.7872 38.2746ZM10.2402 40.8137L23.0533 53.6554L18.9729 57.7124C18.6618 58.0219 18.1999 58.0219 17.8888 57.7124L6.10736 45.9954C5.79607 45.6858 5.79607 45.2347 6.10736 44.9251L10.2402 40.8137ZM17.9982 53.5561C17.6558 54.0306 17.7634 54.693 18.2385 55.0346C18.7126 55.3757 19.3734 55.2682 19.715 54.7944C20.0565 54.3207 19.9499 53.66 19.4768 53.3178C18.9353 52.9713 18.3539 53.0798 17.9982 53.5561L17.9982 53.5561Z" fill="#424241"/>
</svg>
